<mxfile host="Electron" agent="Mozilla/5.0 (Windows NT 10.0; Win64; x64) AppleWebKit/537.36 (KHTML, like Gecko) draw.io/26.2.2 Chrome/134.0.6998.178 Electron/35.1.2 Safari/537.36" version="26.2.2">
  <diagram name="Страница — 1" id="Vp5nl0iZiVfFydLQLRMC">
    <mxGraphModel dx="3420" dy="1552" grid="1" gridSize="10" guides="1" tooltips="1" connect="1" arrows="1" fold="1" page="1" pageScale="1" pageWidth="827" pageHeight="1169" math="0" shadow="0">
      <root>
        <mxCell id="0" />
        <mxCell id="1" parent="0" />
        <mxCell id="betQjuDFQChYaj_9KPCg-37" value="" style="endArrow=none;html=1;rounded=0;exitX=0.07;exitY=0.4;exitDx=0;exitDy=0;exitPerimeter=0;entryX=0;entryY=0.5;entryDx=0;entryDy=0;entryPerimeter=0;" parent="1" source="betQjuDFQChYaj_9KPCg-36" target="9QaCa96sRWtHc6JSc8Kn-10" edge="1">
          <mxGeometry width="50" height="50" relative="1" as="geometry">
            <mxPoint x="70" y="910" as="sourcePoint" />
            <mxPoint x="77" y="818" as="targetPoint" />
            <Array as="points" />
          </mxGeometry>
        </mxCell>
        <mxCell id="betQjuDFQChYaj_9KPCg-12" value="" style="rounded=0;whiteSpace=wrap;html=1;" parent="1" vertex="1">
          <mxGeometry x="100" y="1042" width="330" height="94" as="geometry" />
        </mxCell>
        <mxCell id="Ps-6_fYjzGiWJNzwA4xQ-4" value="" style="endArrow=none;html=1;rounded=0;exitX=0.5;exitY=0;exitDx=0;exitDy=0;exitPerimeter=0;" parent="1" source="muuk2Ey48-B4BVq4eK8P-59" edge="1">
          <mxGeometry width="50" height="50" relative="1" as="geometry">
            <mxPoint x="364.39000000000004" y="1029.5" as="sourcePoint" />
            <mxPoint x="355.4988484848487" y="976.5" as="targetPoint" />
            <Array as="points" />
          </mxGeometry>
        </mxCell>
        <mxCell id="Ps-6_fYjzGiWJNzwA4xQ-3" value="" style="endArrow=none;html=1;rounded=0;exitX=0.5;exitY=0.05;exitDx=0;exitDy=0;exitPerimeter=0;entryX=0.5;entryY=1;entryDx=0;entryDy=0;entryPerimeter=0;" parent="1" source="Ps-6_fYjzGiWJNzwA4xQ-1" target="9QaCa96sRWtHc6JSc8Kn-10" edge="1">
          <mxGeometry width="50" height="50" relative="1" as="geometry">
            <mxPoint x="268.84000000000003" y="921" as="sourcePoint" />
            <mxPoint x="268.84000000000003" y="882" as="targetPoint" />
            <Array as="points" />
          </mxGeometry>
        </mxCell>
        <mxCell id="muuk2Ey48-B4BVq4eK8P-16" value="pve-node-1" style="text;html=1;align=center;verticalAlign=middle;resizable=0;points=[];autosize=1;strokeColor=none;fillColor=none;" parent="1" vertex="1">
          <mxGeometry x="920" y="1144" width="80" height="30" as="geometry" />
        </mxCell>
        <mxCell id="muuk2Ey48-B4BVq4eK8P-17" value="pve-node-2" style="text;html=1;align=center;verticalAlign=middle;resizable=0;points=[];autosize=1;strokeColor=none;fillColor=none;" parent="1" vertex="1">
          <mxGeometry x="920" y="1229" width="80" height="30" as="geometry" />
        </mxCell>
        <mxCell id="muuk2Ey48-B4BVq4eK8P-18" value="pve-node-3" style="text;html=1;align=center;verticalAlign=middle;resizable=0;points=[];autosize=1;strokeColor=none;fillColor=none;" parent="1" vertex="1">
          <mxGeometry x="920" y="1311" width="80" height="30" as="geometry" />
        </mxCell>
        <mxCell id="muuk2Ey48-B4BVq4eK8P-19" value="" style="shape=mxgraph.cisco.servers.fileserver;sketch=0;html=1;pointerEvents=1;dashed=0;fillColor=#036897;strokeColor=#ffffff;strokeWidth=2;verticalLabelPosition=bottom;verticalAlign=top;align=center;outlineConnect=0;" parent="1" vertex="1">
          <mxGeometry x="797" y="1386.5" width="43" height="62" as="geometry" />
        </mxCell>
        <mxCell id="muuk2Ey48-B4BVq4eK8P-20" value="storage-node-2" style="text;html=1;align=center;verticalAlign=middle;resizable=0;points=[];autosize=1;strokeColor=none;fillColor=none;" parent="1" vertex="1">
          <mxGeometry x="768.5" y="1442.5" width="100" height="30" as="geometry" />
        </mxCell>
        <mxCell id="muuk2Ey48-B4BVq4eK8P-21" value="" style="shape=mxgraph.cisco.servers.fileserver;sketch=0;html=1;pointerEvents=1;dashed=0;fillColor=#036897;strokeColor=#ffffff;strokeWidth=2;verticalLabelPosition=bottom;verticalAlign=top;align=center;outlineConnect=0;" parent="1" vertex="1">
          <mxGeometry x="990.5" y="1380.5" width="43" height="62" as="geometry" />
        </mxCell>
        <mxCell id="muuk2Ey48-B4BVq4eK8P-22" value="storage-node-1" style="text;html=1;align=center;verticalAlign=middle;resizable=0;points=[];autosize=1;strokeColor=none;fillColor=none;" parent="1" vertex="1">
          <mxGeometry x="960" y="1437.5" width="100" height="30" as="geometry" />
        </mxCell>
        <mxCell id="muuk2Ey48-B4BVq4eK8P-23" value="" style="shape=mxgraph.cisco.computers_and_peripherals.terminal;sketch=0;html=1;pointerEvents=1;dashed=0;fillColor=#036897;strokeColor=#ffffff;strokeWidth=2;verticalLabelPosition=bottom;verticalAlign=top;align=center;outlineConnect=0;" parent="1" vertex="1">
          <mxGeometry x="302" y="1400" width="61" height="54" as="geometry" />
        </mxCell>
        <mxCell id="muuk2Ey48-B4BVq4eK8P-24" value="" style="shape=mxgraph.cisco.computers_and_peripherals.terminal;sketch=0;html=1;pointerEvents=1;dashed=0;fillColor=#036897;strokeColor=#ffffff;strokeWidth=2;verticalLabelPosition=bottom;verticalAlign=top;align=center;outlineConnect=0;" parent="1" vertex="1">
          <mxGeometry x="383" y="1400" width="61" height="54" as="geometry" />
        </mxCell>
        <mxCell id="muuk2Ey48-B4BVq4eK8P-25" value="" style="shape=mxgraph.cisco.computers_and_peripherals.terminal;sketch=0;html=1;pointerEvents=1;dashed=0;fillColor=#036897;strokeColor=#ffffff;strokeWidth=2;verticalLabelPosition=bottom;verticalAlign=top;align=center;outlineConnect=0;" parent="1" vertex="1">
          <mxGeometry x="464" y="1400" width="61" height="54" as="geometry" />
        </mxCell>
        <mxCell id="muuk2Ey48-B4BVq4eK8P-30" value="" style="shape=mxgraph.cisco.computers_and_peripherals.terminal;sketch=0;html=1;pointerEvents=1;dashed=0;fillColor=#036897;strokeColor=#ffffff;strokeWidth=2;verticalLabelPosition=bottom;verticalAlign=top;align=center;outlineConnect=0;" parent="1" vertex="1">
          <mxGeometry x="300.5" y="1316" width="61" height="54" as="geometry" />
        </mxCell>
        <mxCell id="muuk2Ey48-B4BVq4eK8P-31" value="" style="shape=mxgraph.cisco.computers_and_peripherals.terminal;sketch=0;html=1;pointerEvents=1;dashed=0;fillColor=#036897;strokeColor=#ffffff;strokeWidth=2;verticalLabelPosition=bottom;verticalAlign=top;align=center;outlineConnect=0;" parent="1" vertex="1">
          <mxGeometry x="381.5" y="1316" width="61" height="54" as="geometry" />
        </mxCell>
        <mxCell id="muuk2Ey48-B4BVq4eK8P-32" value="" style="shape=mxgraph.cisco.computers_and_peripherals.terminal;sketch=0;html=1;pointerEvents=1;dashed=0;fillColor=#036897;strokeColor=#ffffff;strokeWidth=2;verticalLabelPosition=bottom;verticalAlign=top;align=center;outlineConnect=0;" parent="1" vertex="1">
          <mxGeometry x="462.5" y="1316" width="61" height="54" as="geometry" />
        </mxCell>
        <mxCell id="muuk2Ey48-B4BVq4eK8P-33" value="client" style="text;html=1;align=center;verticalAlign=middle;resizable=0;points=[];autosize=1;strokeColor=none;fillColor=none;" parent="1" vertex="1">
          <mxGeometry x="470" y="1454" width="50" height="30" as="geometry" />
        </mxCell>
        <mxCell id="muuk2Ey48-B4BVq4eK8P-34" value="client" style="text;html=1;align=center;verticalAlign=middle;resizable=0;points=[];autosize=1;strokeColor=none;fillColor=none;" parent="1" vertex="1">
          <mxGeometry x="467.5" y="1370" width="50" height="30" as="geometry" />
        </mxCell>
        <mxCell id="muuk2Ey48-B4BVq4eK8P-35" value="client" style="text;html=1;align=center;verticalAlign=middle;resizable=0;points=[];autosize=1;strokeColor=none;fillColor=none;" parent="1" vertex="1">
          <mxGeometry x="307" y="1454" width="50" height="30" as="geometry" />
        </mxCell>
        <mxCell id="muuk2Ey48-B4BVq4eK8P-36" value="client" style="text;html=1;align=center;verticalAlign=middle;resizable=0;points=[];autosize=1;strokeColor=none;fillColor=none;" parent="1" vertex="1">
          <mxGeometry x="388.5" y="1454" width="50" height="30" as="geometry" />
        </mxCell>
        <mxCell id="muuk2Ey48-B4BVq4eK8P-37" value="client" style="text;html=1;align=center;verticalAlign=middle;resizable=0;points=[];autosize=1;strokeColor=none;fillColor=none;" parent="1" vertex="1">
          <mxGeometry x="305.5" y="1370" width="50" height="30" as="geometry" />
        </mxCell>
        <mxCell id="muuk2Ey48-B4BVq4eK8P-38" value="client" style="text;html=1;align=center;verticalAlign=middle;resizable=0;points=[];autosize=1;strokeColor=none;fillColor=none;" parent="1" vertex="1">
          <mxGeometry x="387.5" y="1370" width="50" height="30" as="geometry" />
        </mxCell>
        <mxCell id="muuk2Ey48-B4BVq4eK8P-43" value="" style="shape=mxgraph.cisco.computers_and_peripherals.terminal;sketch=0;html=1;pointerEvents=1;dashed=0;fillColor=#036897;strokeColor=#ffffff;strokeWidth=2;verticalLabelPosition=bottom;verticalAlign=top;align=center;outlineConnect=0;" parent="1" vertex="1">
          <mxGeometry x="302.5" y="1492" width="61" height="54" as="geometry" />
        </mxCell>
        <mxCell id="muuk2Ey48-B4BVq4eK8P-44" value="" style="shape=mxgraph.cisco.computers_and_peripherals.terminal;sketch=0;html=1;pointerEvents=1;dashed=0;fillColor=#036897;strokeColor=#ffffff;strokeWidth=2;verticalLabelPosition=bottom;verticalAlign=top;align=center;outlineConnect=0;" parent="1" vertex="1">
          <mxGeometry x="383.5" y="1492" width="61" height="54" as="geometry" />
        </mxCell>
        <mxCell id="muuk2Ey48-B4BVq4eK8P-45" value="" style="shape=mxgraph.cisco.computers_and_peripherals.terminal;sketch=0;html=1;pointerEvents=1;dashed=0;fillColor=#036897;strokeColor=#ffffff;strokeWidth=2;verticalLabelPosition=bottom;verticalAlign=top;align=center;outlineConnect=0;" parent="1" vertex="1">
          <mxGeometry x="464.5" y="1492" width="61" height="54" as="geometry" />
        </mxCell>
        <mxCell id="muuk2Ey48-B4BVq4eK8P-46" value="cod-cli-3" style="text;html=1;align=center;verticalAlign=middle;resizable=0;points=[];autosize=1;strokeColor=none;fillColor=none;" parent="1" vertex="1">
          <mxGeometry x="459.5" y="1546" width="70" height="30" as="geometry" />
        </mxCell>
        <mxCell id="muuk2Ey48-B4BVq4eK8P-47" value="cod-cli-1" style="text;html=1;align=center;verticalAlign=middle;resizable=0;points=[];autosize=1;strokeColor=none;fillColor=none;" parent="1" vertex="1">
          <mxGeometry x="297.5" y="1546" width="70" height="30" as="geometry" />
        </mxCell>
        <mxCell id="muuk2Ey48-B4BVq4eK8P-48" value="cod-cli-2" style="text;html=1;align=center;verticalAlign=middle;resizable=0;points=[];autosize=1;strokeColor=none;fillColor=none;" parent="1" vertex="1">
          <mxGeometry x="379.5" y="1546" width="70" height="30" as="geometry" />
        </mxCell>
        <mxCell id="muuk2Ey48-B4BVq4eK8P-49" value="" style="shape=mxgraph.cisco.computers_and_peripherals.terminal;sketch=0;html=1;pointerEvents=1;dashed=0;fillColor=#036897;strokeColor=#ffffff;strokeWidth=2;verticalLabelPosition=bottom;verticalAlign=top;align=center;outlineConnect=0;" parent="1" vertex="1">
          <mxGeometry x="184" y="1328.5" width="61" height="54" as="geometry" />
        </mxCell>
        <mxCell id="muuk2Ey48-B4BVq4eK8P-50" value="network-admin-node" style="text;html=1;align=center;verticalAlign=middle;resizable=0;points=[];autosize=1;strokeColor=none;fillColor=none;" parent="1" vertex="1">
          <mxGeometry x="154.5" y="1379.5" width="130" height="30" as="geometry" />
        </mxCell>
        <mxCell id="muuk2Ey48-B4BVq4eK8P-55" value="ald-node-1" style="text;html=1;align=center;verticalAlign=middle;resizable=0;points=[];autosize=1;strokeColor=none;fillColor=none;" parent="1" vertex="1">
          <mxGeometry x="922" y="1058" width="80" height="30" as="geometry" />
        </mxCell>
        <mxCell id="muuk2Ey48-B4BVq4eK8P-59" value="" style="shape=mxgraph.cisco.switches.workgroup_switch;sketch=0;html=1;pointerEvents=1;dashed=0;fillColor=#036897;strokeColor=#ffffff;strokeWidth=2;verticalLabelPosition=bottom;verticalAlign=top;align=center;outlineConnect=0;" parent="1" vertex="1">
          <mxGeometry x="311.25" y="1066" width="101" height="50" as="geometry" />
        </mxCell>
        <mxCell id="muuk2Ey48-B4BVq4eK8P-69" value="&lt;font style=&quot;font-size: 9px;&quot;&gt;core-sw-2&lt;/font&gt;" style="text;html=1;align=center;verticalAlign=middle;resizable=0;points=[];autosize=1;strokeColor=none;fillColor=none;" parent="1" vertex="1">
          <mxGeometry x="318.25" y="1088" width="60" height="30" as="geometry" />
        </mxCell>
        <mxCell id="muuk2Ey48-B4BVq4eK8P-71" value="" style="shape=mxgraph.cisco.computers_and_peripherals.terminal;sketch=0;html=1;pointerEvents=1;dashed=0;fillColor=#036897;strokeColor=#ffffff;strokeWidth=2;verticalLabelPosition=bottom;verticalAlign=top;align=center;outlineConnect=0;" parent="1" vertex="1">
          <mxGeometry x="76" y="1328.5" width="61" height="54" as="geometry" />
        </mxCell>
        <mxCell id="muuk2Ey48-B4BVq4eK8P-72" value="hw-admin-node" style="text;html=1;align=center;verticalAlign=middle;resizable=0;points=[];autosize=1;strokeColor=none;fillColor=none;" parent="1" vertex="1">
          <mxGeometry x="54.5" y="1379.5" width="110" height="30" as="geometry" />
        </mxCell>
        <mxCell id="muuk2Ey48-B4BVq4eK8P-73" value="" style="shape=mxgraph.cisco.computers_and_peripherals.terminal;sketch=0;html=1;pointerEvents=1;dashed=0;fillColor=#036897;strokeColor=#ffffff;strokeWidth=2;verticalLabelPosition=bottom;verticalAlign=top;align=center;outlineConnect=0;" parent="1" vertex="1">
          <mxGeometry x="-35" y="1328.5" width="61" height="54" as="geometry" />
        </mxCell>
        <mxCell id="muuk2Ey48-B4BVq4eK8P-74" value="main-admin-node" style="text;html=1;align=center;verticalAlign=middle;resizable=0;points=[];autosize=1;strokeColor=none;fillColor=none;" parent="1" vertex="1">
          <mxGeometry x="-64" y="1380.5" width="120" height="30" as="geometry" />
        </mxCell>
        <mxCell id="hAfyrsxasU9BH3moIb1E-30" value="" style="endArrow=none;html=1;rounded=0;fillColor=#60a917;strokeColor=#2D7600;entryX=0.5;entryY=0;entryDx=0;entryDy=0;entryPerimeter=0;" parent="1" target="muuk2Ey48-B4BVq4eK8P-23" edge="1">
          <mxGeometry width="50" height="50" relative="1" as="geometry">
            <mxPoint x="415.5" y="1227" as="sourcePoint" />
            <mxPoint x="555.5" y="1290" as="targetPoint" />
          </mxGeometry>
        </mxCell>
        <mxCell id="hAfyrsxasU9BH3moIb1E-31" value="" style="endArrow=none;html=1;rounded=0;fillColor=#60a917;strokeColor=#2D7600;entryX=0.5;entryY=0;entryDx=0;entryDy=0;entryPerimeter=0;" parent="1" target="muuk2Ey48-B4BVq4eK8P-24" edge="1">
          <mxGeometry width="50" height="50" relative="1" as="geometry">
            <mxPoint x="415.5" y="1227" as="sourcePoint" />
            <mxPoint x="613.5" y="1326" as="targetPoint" />
          </mxGeometry>
        </mxCell>
        <mxCell id="hAfyrsxasU9BH3moIb1E-32" value="" style="endArrow=none;html=1;rounded=0;fillColor=#60a917;strokeColor=#2D7600;entryX=0.5;entryY=0;entryDx=0;entryDy=0;entryPerimeter=0;" parent="1" target="muuk2Ey48-B4BVq4eK8P-25" edge="1">
          <mxGeometry width="50" height="50" relative="1" as="geometry">
            <mxPoint x="415.5" y="1227" as="sourcePoint" />
            <mxPoint x="694.5" y="1326" as="targetPoint" />
          </mxGeometry>
        </mxCell>
        <mxCell id="hAfyrsxasU9BH3moIb1E-43" value="" style="endArrow=none;html=1;rounded=0;fillColor=#60a917;strokeColor=#2D7600;exitX=0.5;exitY=0.98;exitDx=0;exitDy=0;exitPerimeter=0;entryX=0.5;entryY=0;entryDx=0;entryDy=0;entryPerimeter=0;" parent="1" target="muuk2Ey48-B4BVq4eK8P-30" edge="1">
          <mxGeometry width="50" height="50" relative="1" as="geometry">
            <mxPoint x="413.5" y="1228" as="sourcePoint" />
            <mxPoint x="274.5" y="1356" as="targetPoint" />
          </mxGeometry>
        </mxCell>
        <mxCell id="hAfyrsxasU9BH3moIb1E-44" value="" style="endArrow=none;html=1;rounded=0;fillColor=#60a917;strokeColor=#2D7600;exitX=0.5;exitY=0.98;exitDx=0;exitDy=0;exitPerimeter=0;entryX=0.5;entryY=0;entryDx=0;entryDy=0;entryPerimeter=0;" parent="1" target="muuk2Ey48-B4BVq4eK8P-31" edge="1">
          <mxGeometry width="50" height="50" relative="1" as="geometry">
            <mxPoint x="413.5" y="1228" as="sourcePoint" />
            <mxPoint x="340.5" y="1366" as="targetPoint" />
          </mxGeometry>
        </mxCell>
        <mxCell id="hAfyrsxasU9BH3moIb1E-45" value="" style="endArrow=none;html=1;rounded=0;fillColor=#60a917;strokeColor=#2D7600;exitX=0.5;exitY=0.98;exitDx=0;exitDy=0;exitPerimeter=0;entryX=0.5;entryY=0;entryDx=0;entryDy=0;entryPerimeter=0;" parent="1" target="muuk2Ey48-B4BVq4eK8P-32" edge="1">
          <mxGeometry width="50" height="50" relative="1" as="geometry">
            <mxPoint x="413.5" y="1228" as="sourcePoint" />
            <mxPoint x="455.5" y="1346" as="targetPoint" />
          </mxGeometry>
        </mxCell>
        <mxCell id="hAfyrsxasU9BH3moIb1E-46" value="" style="endArrow=none;html=1;rounded=0;fillColor=#0050ef;strokeColor=#001DBC;exitX=0;exitY=0.5;exitDx=0;exitDy=0;exitPerimeter=0;entryX=0.5;entryY=0;entryDx=0;entryDy=0;entryPerimeter=0;" parent="1" target="muuk2Ey48-B4BVq4eK8P-49" edge="1">
          <mxGeometry width="50" height="50" relative="1" as="geometry">
            <mxPoint x="112.5" y="1218.5" as="sourcePoint" />
            <mxPoint x="-58.5" y="1152.5" as="targetPoint" />
          </mxGeometry>
        </mxCell>
        <mxCell id="hAfyrsxasU9BH3moIb1E-47" value="" style="endArrow=none;html=1;rounded=0;fillColor=#0050ef;strokeColor=#001DBC;exitX=0;exitY=0.5;exitDx=0;exitDy=0;exitPerimeter=0;entryX=0.5;entryY=0;entryDx=0;entryDy=0;entryPerimeter=0;" parent="1" target="muuk2Ey48-B4BVq4eK8P-71" edge="1">
          <mxGeometry width="50" height="50" relative="1" as="geometry">
            <mxPoint x="112.5" y="1218.5" as="sourcePoint" />
            <mxPoint x="-128.5" y="1130.5" as="targetPoint" />
          </mxGeometry>
        </mxCell>
        <mxCell id="hAfyrsxasU9BH3moIb1E-48" value="" style="endArrow=none;html=1;rounded=0;fillColor=#0050ef;strokeColor=#001DBC;exitX=0;exitY=0.5;exitDx=0;exitDy=0;exitPerimeter=0;entryX=0.5;entryY=0;entryDx=0;entryDy=0;entryPerimeter=0;" parent="1" target="muuk2Ey48-B4BVq4eK8P-73" edge="1">
          <mxGeometry width="50" height="50" relative="1" as="geometry">
            <mxPoint x="112.5" y="1218.5" as="sourcePoint" />
            <mxPoint x="-108.5" y="1160.5" as="targetPoint" />
          </mxGeometry>
        </mxCell>
        <mxCell id="hAfyrsxasU9BH3moIb1E-87" value="" style="shape=mxgraph.cisco.routers.router;sketch=0;html=1;pointerEvents=1;dashed=0;fillColor=#036897;strokeColor=#ffffff;strokeWidth=2;verticalLabelPosition=bottom;verticalAlign=top;align=center;outlineConnect=0;" parent="1" vertex="1">
          <mxGeometry x="-48.75" y="592" width="78" height="53" as="geometry" />
        </mxCell>
        <mxCell id="hAfyrsxasU9BH3moIb1E-88" value="other-1-router-1" style="text;html=1;align=center;verticalAlign=middle;resizable=0;points=[];autosize=1;strokeColor=none;fillColor=none;" parent="1" vertex="1">
          <mxGeometry x="-64.75" y="562" width="110" height="30" as="geometry" />
        </mxCell>
        <mxCell id="hAfyrsxasU9BH3moIb1E-90" value="" style="shape=mxgraph.cisco.routers.router;sketch=0;html=1;pointerEvents=1;dashed=0;fillColor=#036897;strokeColor=#ffffff;strokeWidth=2;verticalLabelPosition=bottom;verticalAlign=top;align=center;outlineConnect=0;" parent="1" vertex="1">
          <mxGeometry x="-44.75" y="692" width="78" height="53" as="geometry" />
        </mxCell>
        <mxCell id="hAfyrsxasU9BH3moIb1E-91" value="main-2-router-1" style="text;html=1;align=center;verticalAlign=middle;resizable=0;points=[];autosize=1;strokeColor=none;fillColor=none;" parent="1" vertex="1">
          <mxGeometry x="-60.75" y="662" width="110" height="30" as="geometry" />
        </mxCell>
        <mxCell id="hAfyrsxasU9BH3moIb1E-92" value="other-1-lan" style="ellipse;shape=cloud;whiteSpace=wrap;html=1;" parent="1" vertex="1">
          <mxGeometry x="-205.75" y="570.5" width="120" height="80" as="geometry" />
        </mxCell>
        <mxCell id="hAfyrsxasU9BH3moIb1E-93" value="main-2-lan" style="ellipse;shape=cloud;whiteSpace=wrap;html=1;" parent="1" vertex="1">
          <mxGeometry x="-205.75" y="670.5" width="120" height="80" as="geometry" />
        </mxCell>
        <mxCell id="hAfyrsxasU9BH3moIb1E-102" value="" style="endArrow=none;html=1;rounded=0;entryX=0.13;entryY=0.77;entryDx=0;entryDy=0;entryPerimeter=0;exitX=1;exitY=0.5;exitDx=0;exitDy=0;exitPerimeter=0;" parent="1" source="hAfyrsxasU9BH3moIb1E-90" target="hAfyrsxasU9BH3moIb1E-89" edge="1">
          <mxGeometry width="50" height="50" relative="1" as="geometry">
            <mxPoint x="71.75" y="788" as="sourcePoint" />
            <mxPoint x="113.75" y="645" as="targetPoint" />
            <Array as="points">
              <mxPoint x="88.25" y="682" />
            </Array>
          </mxGeometry>
        </mxCell>
        <mxCell id="hAfyrsxasU9BH3moIb1E-103" value="" style="endArrow=none;html=1;rounded=0;entryX=0.165;entryY=0.28;entryDx=0;entryDy=0;entryPerimeter=0;exitX=1;exitY=0.5;exitDx=0;exitDy=0;exitPerimeter=0;" parent="1" source="hAfyrsxasU9BH3moIb1E-87" target="hAfyrsxasU9BH3moIb1E-89" edge="1">
          <mxGeometry width="50" height="50" relative="1" as="geometry">
            <mxPoint x="68.25" y="612" as="sourcePoint" />
            <mxPoint x="255.25" y="574" as="targetPoint" />
            <Array as="points">
              <mxPoint x="88.25" y="642" />
            </Array>
          </mxGeometry>
        </mxCell>
        <mxCell id="hAfyrsxasU9BH3moIb1E-105" value="" style="shape=mxgraph.cisco.computers_and_peripherals.terminal;sketch=0;html=1;pointerEvents=1;dashed=0;fillColor=#036897;strokeColor=#ffffff;strokeWidth=2;verticalLabelPosition=bottom;verticalAlign=top;align=center;outlineConnect=0;" parent="1" vertex="1">
          <mxGeometry x="153.75" y="449" width="61" height="54" as="geometry" />
        </mxCell>
        <mxCell id="hAfyrsxasU9BH3moIb1E-107" value="outter-client-1" style="text;html=1;align=center;verticalAlign=middle;resizable=0;points=[];autosize=1;strokeColor=none;fillColor=none;" parent="1" vertex="1">
          <mxGeometry x="143.75" y="419" width="100" height="30" as="geometry" />
        </mxCell>
        <mxCell id="hAfyrsxasU9BH3moIb1E-108" value="" style="shape=mxgraph.cisco.computers_and_peripherals.terminal;sketch=0;html=1;pointerEvents=1;dashed=0;fillColor=#036897;strokeColor=#ffffff;strokeWidth=2;verticalLabelPosition=bottom;verticalAlign=top;align=center;outlineConnect=0;" parent="1" vertex="1">
          <mxGeometry x="237.75" y="449" width="61" height="54" as="geometry" />
        </mxCell>
        <mxCell id="hAfyrsxasU9BH3moIb1E-109" value="outter-client-2" style="text;html=1;align=center;verticalAlign=middle;resizable=0;points=[];autosize=1;strokeColor=none;fillColor=none;" parent="1" vertex="1">
          <mxGeometry x="227.25" y="419" width="100" height="30" as="geometry" />
        </mxCell>
        <mxCell id="hAfyrsxasU9BH3moIb1E-110" value="" style="shape=mxgraph.cisco.computers_and_peripherals.terminal;sketch=0;html=1;pointerEvents=1;dashed=0;fillColor=#036897;strokeColor=#ffffff;strokeWidth=2;verticalLabelPosition=bottom;verticalAlign=top;align=center;outlineConnect=0;" parent="1" vertex="1">
          <mxGeometry x="326.75" y="449" width="61" height="54" as="geometry" />
        </mxCell>
        <mxCell id="hAfyrsxasU9BH3moIb1E-111" value="outter-client-3" style="text;html=1;align=center;verticalAlign=middle;resizable=0;points=[];autosize=1;strokeColor=none;fillColor=none;" parent="1" vertex="1">
          <mxGeometry x="318.75" y="419" width="100" height="30" as="geometry" />
        </mxCell>
        <mxCell id="hAfyrsxasU9BH3moIb1E-112" value="" style="endArrow=none;html=1;rounded=0;entryX=0.533;entryY=0.413;entryDx=0;entryDy=0;entryPerimeter=0;exitX=0.5;exitY=1;exitDx=0;exitDy=0;exitPerimeter=0;" parent="1" source="hAfyrsxasU9BH3moIb1E-105" target="hAfyrsxasU9BH3moIb1E-89" edge="1">
          <mxGeometry width="50" height="50" relative="1" as="geometry">
            <mxPoint x="178.25" y="532" as="sourcePoint" />
            <mxPoint x="373.25" y="554" as="targetPoint" />
            <Array as="points">
              <mxPoint x="238.25" y="552" />
            </Array>
          </mxGeometry>
        </mxCell>
        <mxCell id="hAfyrsxasU9BH3moIb1E-113" value="" style="endArrow=none;html=1;rounded=0;exitX=0.5;exitY=1;exitDx=0;exitDy=0;exitPerimeter=0;" parent="1" source="hAfyrsxasU9BH3moIb1E-108" edge="1">
          <mxGeometry width="50" height="50" relative="1" as="geometry">
            <mxPoint x="278.25" y="532" as="sourcePoint" />
            <mxPoint x="268.25" y="652" as="targetPoint" />
            <Array as="points">
              <mxPoint x="268.25" y="572" />
            </Array>
          </mxGeometry>
        </mxCell>
        <mxCell id="hAfyrsxasU9BH3moIb1E-114" value="" style="endArrow=none;html=1;rounded=0;exitX=0.5;exitY=1;exitDx=0;exitDy=0;exitPerimeter=0;" parent="1" source="hAfyrsxasU9BH3moIb1E-110" edge="1">
          <mxGeometry width="50" height="50" relative="1" as="geometry">
            <mxPoint x="308.25" y="542" as="sourcePoint" />
            <mxPoint x="268.25" y="652" as="targetPoint" />
            <Array as="points">
              <mxPoint x="298.25" y="552" />
            </Array>
          </mxGeometry>
        </mxCell>
        <mxCell id="hAfyrsxasU9BH3moIb1E-89" value="&lt;font style=&quot;font-size: 11px;&quot;&gt;IPsec&lt;/font&gt;" style="ellipse;shape=cloud;whiteSpace=wrap;html=1;" parent="1" vertex="1">
          <mxGeometry x="200.75" y="619" width="120" height="80" as="geometry" />
        </mxCell>
        <mxCell id="muuk2Ey48-B4BVq4eK8P-12" value="" style="shape=mxgraph.cisco.servers.fileserver;sketch=0;html=1;pointerEvents=1;dashed=0;fillColor=#036897;strokeColor=#ffffff;strokeWidth=2;verticalLabelPosition=bottom;verticalAlign=top;align=center;outlineConnect=0;" parent="1" vertex="1">
          <mxGeometry x="938.5" y="1255" width="43" height="62" as="geometry" />
        </mxCell>
        <mxCell id="muuk2Ey48-B4BVq4eK8P-14" value="" style="shape=mxgraph.cisco.servers.fileserver;sketch=0;html=1;pointerEvents=1;dashed=0;fillColor=#036897;strokeColor=#ffffff;strokeWidth=2;verticalLabelPosition=bottom;verticalAlign=top;align=center;outlineConnect=0;" parent="1" vertex="1">
          <mxGeometry x="938.5" y="1173" width="43" height="62" as="geometry" />
        </mxCell>
        <mxCell id="muuk2Ey48-B4BVq4eK8P-53" value="" style="shape=mxgraph.cisco.servers.fileserver;sketch=0;html=1;pointerEvents=1;dashed=0;fillColor=#036897;strokeColor=#ffffff;strokeWidth=2;verticalLabelPosition=bottom;verticalAlign=top;align=center;outlineConnect=0;" parent="1" vertex="1">
          <mxGeometry x="940.5" y="1001.5" width="43" height="62" as="geometry" />
        </mxCell>
        <mxCell id="9QaCa96sRWtHc6JSc8Kn-11" value="ideco-fw" style="text;html=1;align=center;verticalAlign=middle;resizable=0;points=[];autosize=1;strokeColor=none;fillColor=none;" parent="1" vertex="1">
          <mxGeometry x="233.25" y="780" width="70" height="30" as="geometry" />
        </mxCell>
        <mxCell id="9QaCa96sRWtHc6JSc8Kn-14" value="" style="endArrow=none;html=1;rounded=0;entryX=0.55;entryY=0.95;entryDx=0;entryDy=0;entryPerimeter=0;exitX=0.5;exitY=0;exitDx=0;exitDy=0;exitPerimeter=0;" parent="1" source="9QaCa96sRWtHc6JSc8Kn-10" target="hAfyrsxasU9BH3moIb1E-89" edge="1">
          <mxGeometry width="50" height="50" relative="1" as="geometry">
            <mxPoint x="299.5" y="921" as="sourcePoint" />
            <mxPoint x="255.6400000000001" y="771.2" as="targetPoint" />
            <Array as="points" />
          </mxGeometry>
        </mxCell>
        <mxCell id="9QaCa96sRWtHc6JSc8Kn-10" value="" style="fontColor=#0066CC;verticalAlign=top;verticalLabelPosition=bottom;labelPosition=center;align=center;html=1;outlineConnect=0;fillColor=#CCCCCC;strokeColor=#6881B3;gradientColor=none;gradientDirection=north;strokeWidth=2;shape=mxgraph.networks.firewall;" parent="1" vertex="1">
          <mxGeometry x="242.25" y="803" width="50" height="50" as="geometry" />
        </mxCell>
        <mxCell id="Ps-6_fYjzGiWJNzwA4xQ-1" value="" style="shape=mxgraph.cisco.storage.cloud;sketch=0;html=1;pointerEvents=1;dashed=0;fillColor=#036897;strokeColor=#ffffff;strokeWidth=2;verticalLabelPosition=bottom;verticalAlign=top;align=center;outlineConnect=0;" parent="1" vertex="1">
          <mxGeometry x="156" y="924" width="104" height="59" as="geometry" />
        </mxCell>
        <mxCell id="Ps-6_fYjzGiWJNzwA4xQ-5" value="&lt;font style=&quot;font-size: 9px;&quot;&gt;172.16.0.0/30&lt;/font&gt;" style="text;html=1;align=center;verticalAlign=middle;resizable=0;points=[];autosize=1;strokeColor=none;fillColor=none;" parent="1" vertex="1">
          <mxGeometry x="169.5" y="938.5" width="80" height="30" as="geometry" />
        </mxCell>
        <mxCell id="Ps-6_fYjzGiWJNzwA4xQ-6" value="&lt;font size=&quot;1&quot;&gt;.1&lt;/font&gt;" style="text;html=1;align=center;verticalAlign=middle;resizable=0;points=[];autosize=1;strokeColor=none;fillColor=none;" parent="1" vertex="1">
          <mxGeometry x="231.5" y="846.5" width="30" height="30" as="geometry" />
        </mxCell>
        <mxCell id="Ps-6_fYjzGiWJNzwA4xQ-7" value="&lt;font style=&quot;font-size: 9px;&quot;&gt;.6&lt;/font&gt;" style="text;html=1;align=center;verticalAlign=middle;resizable=0;points=[];autosize=1;strokeColor=none;fillColor=none;" parent="1" vertex="1">
          <mxGeometry x="336.5" y="1041.5" width="30" height="30" as="geometry" />
        </mxCell>
        <mxCell id="Ps-6_fYjzGiWJNzwA4xQ-29" value="" style="endArrow=none;html=1;rounded=0;entryX=0.466;entryY=1.049;entryDx=0;entryDy=0;entryPerimeter=0;" parent="1" source="Ps-6_fYjzGiWJNzwA4xQ-31" target="betQjuDFQChYaj_9KPCg-13" edge="1">
          <mxGeometry width="50" height="50" relative="1" as="geometry">
            <mxPoint x="326.16" y="1101" as="sourcePoint" />
            <mxPoint x="280" y="1110" as="targetPoint" />
            <Array as="points" />
          </mxGeometry>
        </mxCell>
        <mxCell id="Ps-6_fYjzGiWJNzwA4xQ-30" value="" style="shape=mxgraph.cisco.storage.cloud;sketch=0;html=1;pointerEvents=1;dashed=0;fillColor=#036897;strokeColor=#ffffff;strokeWidth=2;verticalLabelPosition=bottom;verticalAlign=top;align=center;outlineConnect=0;" parent="1" vertex="1">
          <mxGeometry x="358.5" y="1174" width="104" height="59" as="geometry" />
        </mxCell>
        <mxCell id="Ps-6_fYjzGiWJNzwA4xQ-31" value="&lt;font style=&quot;font-size: 9px;&quot;&gt;10.0.0.0/23&lt;/font&gt;&lt;div&gt;&lt;font size=&quot;1&quot;&gt;VLAN 201&lt;/font&gt;&lt;/div&gt;" style="text;html=1;align=center;verticalAlign=middle;resizable=0;points=[];autosize=1;strokeColor=none;fillColor=none;" parent="1" vertex="1">
          <mxGeometry x="377" y="1183.5" width="70" height="40" as="geometry" />
        </mxCell>
        <mxCell id="Ps-6_fYjzGiWJNzwA4xQ-32" value="" style="shape=mxgraph.cisco.storage.cloud;sketch=0;html=1;pointerEvents=1;dashed=0;fillColor=#036897;strokeColor=#ffffff;strokeWidth=2;verticalLabelPosition=bottom;verticalAlign=top;align=center;outlineConnect=0;" parent="1" vertex="1">
          <mxGeometry x="56" y="1178.5" width="104" height="59" as="geometry" />
        </mxCell>
        <mxCell id="Ps-6_fYjzGiWJNzwA4xQ-33" value="&lt;font style=&quot;font-size: 8px;&quot;&gt;192.168.100.0/24&lt;/font&gt;&lt;br&gt;&lt;div&gt;&lt;font style=&quot;font-size: 9px;&quot;&gt;VLAN 100&lt;/font&gt;&lt;/div&gt;" style="text;html=1;align=center;verticalAlign=middle;resizable=0;points=[];autosize=1;strokeColor=none;fillColor=none;" parent="1" vertex="1">
          <mxGeometry x="64.5" y="1188" width="90" height="40" as="geometry" />
        </mxCell>
        <mxCell id="Ps-6_fYjzGiWJNzwA4xQ-36" value="" style="endArrow=none;html=1;rounded=0;exitX=0.89;exitY=0.2;exitDx=0;exitDy=0;exitPerimeter=0;entryX=0.463;entryY=1.07;entryDx=0;entryDy=0;entryPerimeter=0;" parent="1" source="Ps-6_fYjzGiWJNzwA4xQ-32" target="betQjuDFQChYaj_9KPCg-13" edge="1">
          <mxGeometry width="50" height="50" relative="1" as="geometry">
            <mxPoint x="169.50000000000006" y="1215.5" as="sourcePoint" />
            <mxPoint x="228.75" y="1150" as="targetPoint" />
            <Array as="points" />
          </mxGeometry>
        </mxCell>
        <mxCell id="Ps-6_fYjzGiWJNzwA4xQ-42" value="" style="shape=mxgraph.cisco.storage.cloud;sketch=0;html=1;pointerEvents=1;dashed=0;fillColor=#036897;strokeColor=#ffffff;strokeWidth=2;verticalLabelPosition=bottom;verticalAlign=top;align=center;outlineConnect=0;" parent="1" vertex="1">
          <mxGeometry x="629.75" y="1059" width="104" height="59" as="geometry" />
        </mxCell>
        <mxCell id="Ps-6_fYjzGiWJNzwA4xQ-43" value="&lt;font style=&quot;font-size: 8px;&quot;&gt;192.168.101.0/24&lt;br&gt;&lt;/font&gt;&lt;div&gt;&lt;font style=&quot;font-size: 9px;&quot;&gt;VLAN 102&lt;/font&gt;&lt;/div&gt;" style="text;html=1;align=center;verticalAlign=middle;resizable=0;points=[];autosize=1;strokeColor=none;fillColor=none;" parent="1" vertex="1">
          <mxGeometry x="638.25" y="1068.5" width="90" height="40" as="geometry" />
        </mxCell>
        <mxCell id="Ps-6_fYjzGiWJNzwA4xQ-45" value="" style="shape=mxgraph.cisco.switches.workgroup_switch;sketch=0;html=1;pointerEvents=1;dashed=0;fillColor=#036897;strokeColor=#ffffff;strokeWidth=2;verticalLabelPosition=bottom;verticalAlign=top;align=center;outlineConnect=0;" parent="1" vertex="1">
          <mxGeometry x="796.5" y="968.5" width="101" height="50" as="geometry" />
        </mxCell>
        <mxCell id="Ps-6_fYjzGiWJNzwA4xQ-46" value="access-sw-1" style="text;html=1;align=center;verticalAlign=middle;resizable=0;points=[];autosize=1;strokeColor=none;fillColor=none;" parent="1" vertex="1">
          <mxGeometry x="788.5" y="990.5" width="90" height="30" as="geometry" />
        </mxCell>
        <mxCell id="Ps-6_fYjzGiWJNzwA4xQ-47" value="" style="shape=mxgraph.cisco.switches.workgroup_switch;sketch=0;html=1;pointerEvents=1;dashed=0;fillColor=#036897;strokeColor=#ffffff;strokeWidth=2;verticalLabelPosition=bottom;verticalAlign=top;align=center;outlineConnect=0;" parent="1" vertex="1">
          <mxGeometry x="476" y="968.5" width="101" height="50" as="geometry" />
        </mxCell>
        <mxCell id="Ps-6_fYjzGiWJNzwA4xQ-48" value="access-sw-0" style="text;html=1;align=center;verticalAlign=middle;resizable=0;points=[];autosize=1;strokeColor=none;fillColor=none;" parent="1" vertex="1">
          <mxGeometry x="470" y="990.5" width="90" height="30" as="geometry" />
        </mxCell>
        <mxCell id="Ps-6_fYjzGiWJNzwA4xQ-49" value="" style="shape=mxgraph.cisco.switches.workgroup_switch;sketch=0;html=1;pointerEvents=1;dashed=0;fillColor=#036897;strokeColor=#ffffff;strokeWidth=2;verticalLabelPosition=bottom;verticalAlign=top;align=center;outlineConnect=0;" parent="1" vertex="1">
          <mxGeometry x="691.5" y="968.5" width="101" height="50" as="geometry" />
        </mxCell>
        <mxCell id="Ps-6_fYjzGiWJNzwA4xQ-50" value="access-sw-2" style="text;html=1;align=center;verticalAlign=middle;resizable=0;points=[];autosize=1;strokeColor=none;fillColor=none;" parent="1" vertex="1">
          <mxGeometry x="681.5" y="990.5" width="90" height="30" as="geometry" />
        </mxCell>
        <mxCell id="Ps-6_fYjzGiWJNzwA4xQ-51" value="" style="shape=mxgraph.cisco.switches.workgroup_switch;sketch=0;html=1;pointerEvents=1;dashed=0;fillColor=#036897;strokeColor=#ffffff;strokeWidth=2;verticalLabelPosition=bottom;verticalAlign=top;align=center;outlineConnect=0;" parent="1" vertex="1">
          <mxGeometry x="581" y="968.5" width="101" height="50" as="geometry" />
        </mxCell>
        <mxCell id="Ps-6_fYjzGiWJNzwA4xQ-52" value="&lt;font style=&quot;font-size: 11px;&quot;&gt;access-srv-sw&lt;/font&gt;" style="text;html=1;align=center;verticalAlign=middle;resizable=0;points=[];autosize=1;strokeColor=none;fillColor=none;" parent="1" vertex="1">
          <mxGeometry x="573" y="990.5" width="90" height="30" as="geometry" />
        </mxCell>
        <mxCell id="Ps-6_fYjzGiWJNzwA4xQ-53" value="" style="endArrow=none;html=1;rounded=0;exitX=0.5;exitY=0.05;exitDx=0;exitDy=0;exitPerimeter=0;entryX=0.5;entryY=0.98;entryDx=0;entryDy=0;entryPerimeter=0;fillColor=#d80073;strokeColor=#A50040;" parent="1" source="Ps-6_fYjzGiWJNzwA4xQ-42" target="Ps-6_fYjzGiWJNzwA4xQ-45" edge="1">
          <mxGeometry width="50" height="50" relative="1" as="geometry">
            <mxPoint x="714.25" y="1173" as="sourcePoint" />
            <mxPoint x="889.25" y="1105" as="targetPoint" />
            <Array as="points" />
          </mxGeometry>
        </mxCell>
        <mxCell id="Ps-6_fYjzGiWJNzwA4xQ-54" value="" style="endArrow=none;html=1;rounded=0;exitX=0.5;exitY=0.05;exitDx=0;exitDy=0;exitPerimeter=0;entryX=0.5;entryY=0.98;entryDx=0;entryDy=0;entryPerimeter=0;fillColor=#d80073;strokeColor=#A50040;" parent="1" source="Ps-6_fYjzGiWJNzwA4xQ-42" target="Ps-6_fYjzGiWJNzwA4xQ-47" edge="1">
          <mxGeometry width="50" height="50" relative="1" as="geometry">
            <mxPoint x="752.25" y="1134" as="sourcePoint" />
            <mxPoint x="827.25" y="1099" as="targetPoint" />
            <Array as="points" />
          </mxGeometry>
        </mxCell>
        <mxCell id="Ps-6_fYjzGiWJNzwA4xQ-55" value="" style="endArrow=none;html=1;rounded=0;exitX=0.5;exitY=0.05;exitDx=0;exitDy=0;exitPerimeter=0;entryX=0.5;entryY=0.98;entryDx=0;entryDy=0;entryPerimeter=0;fillColor=#d80073;strokeColor=#A50040;" parent="1" source="Ps-6_fYjzGiWJNzwA4xQ-42" target="Ps-6_fYjzGiWJNzwA4xQ-49" edge="1">
          <mxGeometry width="50" height="50" relative="1" as="geometry">
            <mxPoint x="662.25" y="1127" as="sourcePoint" />
            <mxPoint x="721.25" y="1092" as="targetPoint" />
            <Array as="points" />
          </mxGeometry>
        </mxCell>
        <mxCell id="Ps-6_fYjzGiWJNzwA4xQ-56" value="" style="endArrow=none;html=1;rounded=0;exitX=0.5;exitY=0.05;exitDx=0;exitDy=0;exitPerimeter=0;entryX=0.5;entryY=0.98;entryDx=0;entryDy=0;entryPerimeter=0;fillColor=#d80073;strokeColor=#A50040;" parent="1" source="Ps-6_fYjzGiWJNzwA4xQ-42" target="Ps-6_fYjzGiWJNzwA4xQ-51" edge="1">
          <mxGeometry width="50" height="50" relative="1" as="geometry">
            <mxPoint x="662.25" y="1127" as="sourcePoint" />
            <mxPoint x="725.25" y="1028" as="targetPoint" />
            <Array as="points" />
          </mxGeometry>
        </mxCell>
        <mxCell id="Ps-6_fYjzGiWJNzwA4xQ-57" value="" style="shape=mxgraph.cisco.servers.fileserver;sketch=0;html=1;pointerEvents=1;dashed=0;fillColor=#036897;strokeColor=#ffffff;strokeWidth=2;verticalLabelPosition=bottom;verticalAlign=top;align=center;outlineConnect=0;" parent="1" vertex="1">
          <mxGeometry x="938.5" y="1088" width="43" height="62" as="geometry" />
        </mxCell>
        <mxCell id="Ps-6_fYjzGiWJNzwA4xQ-60" value="" style="shape=mxgraph.cisco.storage.cloud;sketch=0;html=1;pointerEvents=1;dashed=0;fillColor=#036897;strokeColor=#ffffff;strokeWidth=2;verticalLabelPosition=bottom;verticalAlign=top;align=center;outlineConnect=0;" parent="1" vertex="1">
          <mxGeometry x="630" y="1174" width="104" height="59" as="geometry" />
        </mxCell>
        <mxCell id="Ps-6_fYjzGiWJNzwA4xQ-61" value="&lt;font style=&quot;font-size: 9px;&quot;&gt;10.0.2.0/24&lt;/font&gt;&lt;div&gt;&lt;font style=&quot;font-size: 9px;&quot;&gt;VLAN 101&lt;/font&gt;&lt;/div&gt;" style="text;html=1;align=center;verticalAlign=middle;resizable=0;points=[];autosize=1;strokeColor=none;fillColor=none;" parent="1" vertex="1">
          <mxGeometry x="648.5" y="1183.5" width="70" height="40" as="geometry" />
        </mxCell>
        <mxCell id="Ps-6_fYjzGiWJNzwA4xQ-62" value="" style="endArrow=none;html=1;rounded=0;exitX=0.98;exitY=0.5;exitDx=0;exitDy=0;exitPerimeter=0;entryX=0;entryY=0.5;entryDx=0;entryDy=0;entryPerimeter=0;fillColor=#d80073;strokeColor=#A50040;" parent="1" source="Ps-6_fYjzGiWJNzwA4xQ-42" target="muuk2Ey48-B4BVq4eK8P-21" edge="1">
          <mxGeometry width="50" height="50" relative="1" as="geometry">
            <mxPoint x="800" y="1040.5" as="sourcePoint" />
            <mxPoint x="963" y="962.5" as="targetPoint" />
            <Array as="points" />
          </mxGeometry>
        </mxCell>
        <mxCell id="Ps-6_fYjzGiWJNzwA4xQ-63" value="" style="endArrow=none;html=1;rounded=0;exitX=0.98;exitY=0.5;exitDx=0;exitDy=0;exitPerimeter=0;entryX=0;entryY=0.5;entryDx=0;entryDy=0;entryPerimeter=0;fillColor=#d80073;strokeColor=#A50040;" parent="1" source="Ps-6_fYjzGiWJNzwA4xQ-42" target="muuk2Ey48-B4BVq4eK8P-19" edge="1">
          <mxGeometry width="50" height="50" relative="1" as="geometry">
            <mxPoint x="691" y="1172.5" as="sourcePoint" />
            <mxPoint x="963" y="1012.5" as="targetPoint" />
            <Array as="points" />
          </mxGeometry>
        </mxCell>
        <mxCell id="Ps-6_fYjzGiWJNzwA4xQ-64" value="" style="endArrow=none;html=1;rounded=0;exitX=0.98;exitY=0.5;exitDx=0;exitDy=0;exitPerimeter=0;entryX=0;entryY=0.5;entryDx=0;entryDy=0;entryPerimeter=0;fillColor=#d80073;strokeColor=#A50040;" parent="1" source="Ps-6_fYjzGiWJNzwA4xQ-42" target="muuk2Ey48-B4BVq4eK8P-53" edge="1">
          <mxGeometry width="50" height="50" relative="1" as="geometry">
            <mxPoint x="633.75" y="1135.5" as="sourcePoint" />
            <mxPoint x="903.75" y="1057.5" as="targetPoint" />
            <Array as="points" />
          </mxGeometry>
        </mxCell>
        <mxCell id="Ps-6_fYjzGiWJNzwA4xQ-66" value="" style="endArrow=none;html=1;rounded=0;exitX=0.98;exitY=0.5;exitDx=0;exitDy=0;exitPerimeter=0;entryX=0;entryY=0.5;entryDx=0;entryDy=0;entryPerimeter=0;fillColor=#d80073;strokeColor=#A50040;" parent="1" source="Ps-6_fYjzGiWJNzwA4xQ-42" target="Ps-6_fYjzGiWJNzwA4xQ-57" edge="1">
          <mxGeometry width="50" height="50" relative="1" as="geometry">
            <mxPoint x="800" y="1180.5" as="sourcePoint" />
            <mxPoint x="1070" y="1102.5" as="targetPoint" />
            <Array as="points" />
          </mxGeometry>
        </mxCell>
        <mxCell id="Ps-6_fYjzGiWJNzwA4xQ-67" value="" style="endArrow=none;html=1;rounded=0;exitX=0.98;exitY=0.5;exitDx=0;exitDy=0;exitPerimeter=0;entryX=0;entryY=0.5;entryDx=0;entryDy=0;entryPerimeter=0;fillColor=#d80073;strokeColor=#A50040;" parent="1" source="Ps-6_fYjzGiWJNzwA4xQ-42" target="muuk2Ey48-B4BVq4eK8P-14" edge="1">
          <mxGeometry width="50" height="50" relative="1" as="geometry">
            <mxPoint x="850" y="1260.5" as="sourcePoint" />
            <mxPoint x="1120" y="1182.5" as="targetPoint" />
            <Array as="points" />
          </mxGeometry>
        </mxCell>
        <mxCell id="Ps-6_fYjzGiWJNzwA4xQ-68" value="" style="endArrow=none;html=1;rounded=0;exitX=0.98;exitY=0.5;exitDx=0;exitDy=0;exitPerimeter=0;entryX=0;entryY=0.5;entryDx=0;entryDy=0;entryPerimeter=0;fillColor=#d80073;strokeColor=#A50040;" parent="1" source="Ps-6_fYjzGiWJNzwA4xQ-42" target="muuk2Ey48-B4BVq4eK8P-12" edge="1">
          <mxGeometry width="50" height="50" relative="1" as="geometry">
            <mxPoint x="900" y="1370.5" as="sourcePoint" />
            <mxPoint x="1170" y="1292.5" as="targetPoint" />
            <Array as="points" />
          </mxGeometry>
        </mxCell>
        <mxCell id="Ps-6_fYjzGiWJNzwA4xQ-79" value="" style="endArrow=none;html=1;rounded=0;fillColor=#6d8764;strokeColor=#3A5431;strokeWidth=2;exitX=0;exitY=0.5;exitDx=0;exitDy=0;exitPerimeter=0;entryX=0.98;entryY=0.5;entryDx=0;entryDy=0;entryPerimeter=0;" parent="1" source="muuk2Ey48-B4BVq4eK8P-53" target="Ps-6_fYjzGiWJNzwA4xQ-60" edge="1">
          <mxGeometry width="50" height="50" relative="1" as="geometry">
            <mxPoint x="790" y="1180.5" as="sourcePoint" />
            <mxPoint x="700" y="1180.5" as="targetPoint" />
          </mxGeometry>
        </mxCell>
        <mxCell id="Ps-6_fYjzGiWJNzwA4xQ-82" value="" style="endArrow=none;html=1;rounded=0;fillColor=#6d8764;strokeColor=#3A5431;strokeWidth=2;exitX=0;exitY=0.5;exitDx=0;exitDy=0;exitPerimeter=0;entryX=0.98;entryY=0.5;entryDx=0;entryDy=0;entryPerimeter=0;" parent="1" source="Ps-6_fYjzGiWJNzwA4xQ-57" target="Ps-6_fYjzGiWJNzwA4xQ-60" edge="1">
          <mxGeometry width="50" height="50" relative="1" as="geometry">
            <mxPoint x="770" y="1160.5" as="sourcePoint" />
            <mxPoint x="503" y="1351.5" as="targetPoint" />
          </mxGeometry>
        </mxCell>
        <mxCell id="Ps-6_fYjzGiWJNzwA4xQ-83" value="" style="endArrow=none;html=1;rounded=0;fillColor=#6d8764;strokeColor=#3A5431;strokeWidth=2;exitX=0;exitY=0.5;exitDx=0;exitDy=0;exitPerimeter=0;entryX=0.98;entryY=0.5;entryDx=0;entryDy=0;entryPerimeter=0;" parent="1" source="muuk2Ey48-B4BVq4eK8P-14" target="Ps-6_fYjzGiWJNzwA4xQ-60" edge="1">
          <mxGeometry width="50" height="50" relative="1" as="geometry">
            <mxPoint x="790" y="1200.5" as="sourcePoint" />
            <mxPoint x="523" y="1391.5" as="targetPoint" />
          </mxGeometry>
        </mxCell>
        <mxCell id="Ps-6_fYjzGiWJNzwA4xQ-84" value="" style="endArrow=none;html=1;rounded=0;fillColor=#6d8764;strokeColor=#3A5431;strokeWidth=2;exitX=0;exitY=0.5;exitDx=0;exitDy=0;exitPerimeter=0;entryX=0.98;entryY=0.5;entryDx=0;entryDy=0;entryPerimeter=0;" parent="1" source="muuk2Ey48-B4BVq4eK8P-12" target="Ps-6_fYjzGiWJNzwA4xQ-60" edge="1">
          <mxGeometry width="50" height="50" relative="1" as="geometry">
            <mxPoint x="780" y="1190.5" as="sourcePoint" />
            <mxPoint x="513" y="1381.5" as="targetPoint" />
          </mxGeometry>
        </mxCell>
        <mxCell id="Ps-6_fYjzGiWJNzwA4xQ-85" value="" style="endArrow=none;html=1;rounded=0;fillColor=#6d8764;strokeColor=#3A5431;strokeWidth=2;exitX=0;exitY=0.5;exitDx=0;exitDy=0;exitPerimeter=0;entryX=0.98;entryY=0.5;entryDx=0;entryDy=0;entryPerimeter=0;" parent="1" source="muuk2Ey48-B4BVq4eK8P-21" target="Ps-6_fYjzGiWJNzwA4xQ-60" edge="1">
          <mxGeometry width="50" height="50" relative="1" as="geometry">
            <mxPoint x="820" y="1240.5" as="sourcePoint" />
            <mxPoint x="553" y="1431.5" as="targetPoint" />
          </mxGeometry>
        </mxCell>
        <mxCell id="Ps-6_fYjzGiWJNzwA4xQ-86" value="" style="endArrow=none;html=1;rounded=0;fillColor=#6d8764;strokeColor=#3A5431;strokeWidth=2;exitX=0;exitY=0.5;exitDx=0;exitDy=0;exitPerimeter=0;entryX=0.98;entryY=0.5;entryDx=0;entryDy=0;entryPerimeter=0;" parent="1" source="muuk2Ey48-B4BVq4eK8P-19" target="Ps-6_fYjzGiWJNzwA4xQ-60" edge="1">
          <mxGeometry width="50" height="50" relative="1" as="geometry">
            <mxPoint x="800" y="1220.5" as="sourcePoint" />
            <mxPoint x="533" y="1411.5" as="targetPoint" />
          </mxGeometry>
        </mxCell>
        <mxCell id="L5GtFVVW50Uuzim10pH1-5" value="" style="shape=mxgraph.cisco.storage.cloud;sketch=0;html=1;pointerEvents=1;dashed=0;fillColor=#036897;strokeColor=#ffffff;strokeWidth=2;verticalLabelPosition=bottom;verticalAlign=top;align=center;outlineConnect=0;" parent="1" vertex="1">
          <mxGeometry x="860" y="1388" width="104" height="59" as="geometry" />
        </mxCell>
        <mxCell id="L5GtFVVW50Uuzim10pH1-6" value="&lt;font style=&quot;font-size: 9px;&quot;&gt;172.16.1.0/30&lt;/font&gt;" style="text;html=1;align=center;verticalAlign=middle;resizable=0;points=[];autosize=1;strokeColor=none;fillColor=none;" parent="1" vertex="1">
          <mxGeometry x="873.5" y="1402.5" width="80" height="30" as="geometry" />
        </mxCell>
        <mxCell id="L5GtFVVW50Uuzim10pH1-7" value="" style="endArrow=none;html=1;rounded=0;entryX=1;entryY=0.5;entryDx=0;entryDy=0;entryPerimeter=0;exitX=0.04;exitY=0.5;exitDx=0;exitDy=0;exitPerimeter=0;" parent="1" source="L5GtFVVW50Uuzim10pH1-5" target="muuk2Ey48-B4BVq4eK8P-19" edge="1">
          <mxGeometry width="50" height="50" relative="1" as="geometry">
            <mxPoint x="900" y="1500.5" as="sourcePoint" />
            <mxPoint x="858.1600000000001" y="1430.5" as="targetPoint" />
            <Array as="points" />
          </mxGeometry>
        </mxCell>
        <mxCell id="L5GtFVVW50Uuzim10pH1-8" value="" style="endArrow=none;html=1;rounded=0;entryX=1;entryY=0.5;entryDx=0;entryDy=0;entryPerimeter=0;exitX=0.04;exitY=0.5;exitDx=0;exitDy=0;exitPerimeter=0;" parent="1" edge="1">
          <mxGeometry width="50" height="50" relative="1" as="geometry">
            <mxPoint x="991" y="1417.36" as="sourcePoint" />
            <mxPoint x="960" y="1417.36" as="targetPoint" />
            <Array as="points" />
          </mxGeometry>
        </mxCell>
        <mxCell id="betQjuDFQChYaj_9KPCg-1" value="" style="shape=mxgraph.cisco.switches.workgroup_switch;sketch=0;html=1;pointerEvents=1;dashed=0;fillColor=#036897;strokeColor=#ffffff;strokeWidth=2;verticalLabelPosition=bottom;verticalAlign=top;align=center;outlineConnect=0;" parent="1" vertex="1">
          <mxGeometry x="119.75" y="1067" width="101" height="50" as="geometry" />
        </mxCell>
        <mxCell id="betQjuDFQChYaj_9KPCg-2" value="&lt;font style=&quot;font-size: 9px;&quot;&gt;core-sw-1&lt;/font&gt;" style="text;html=1;align=center;verticalAlign=middle;resizable=0;points=[];autosize=1;strokeColor=none;fillColor=none;" parent="1" vertex="1">
          <mxGeometry x="126.75" y="1089" width="60" height="30" as="geometry" />
        </mxCell>
        <mxCell id="betQjuDFQChYaj_9KPCg-3" value="&lt;font style=&quot;font-size: 9px;&quot;&gt;.2&lt;/font&gt;" style="text;html=1;align=center;verticalAlign=middle;resizable=0;points=[];autosize=1;strokeColor=none;fillColor=none;" parent="1" vertex="1">
          <mxGeometry x="165.75" y="1042" width="30" height="30" as="geometry" />
        </mxCell>
        <mxCell id="betQjuDFQChYaj_9KPCg-7" value="" style="shape=mxgraph.cisco.storage.cloud;sketch=0;html=1;pointerEvents=1;dashed=0;fillColor=#036897;strokeColor=#ffffff;strokeWidth=2;verticalLabelPosition=bottom;verticalAlign=top;align=center;outlineConnect=0;" parent="1" vertex="1">
          <mxGeometry x="273" y="924" width="104" height="59" as="geometry" />
        </mxCell>
        <mxCell id="betQjuDFQChYaj_9KPCg-8" value="&lt;font style=&quot;font-size: 9px;&quot;&gt;172.16.0.4/30&lt;/font&gt;" style="text;html=1;align=center;verticalAlign=middle;resizable=0;points=[];autosize=1;strokeColor=none;fillColor=none;" parent="1" vertex="1">
          <mxGeometry x="286.5" y="938.5" width="80" height="30" as="geometry" />
        </mxCell>
        <mxCell id="betQjuDFQChYaj_9KPCg-9" value="" style="endArrow=none;html=1;rounded=0;exitX=0.5;exitY=1;exitDx=0;exitDy=0;exitPerimeter=0;entryX=0.5;entryY=0.05;entryDx=0;entryDy=0;entryPerimeter=0;" parent="1" source="9QaCa96sRWtHc6JSc8Kn-10" target="betQjuDFQChYaj_9KPCg-7" edge="1">
          <mxGeometry width="50" height="50" relative="1" as="geometry">
            <mxPoint x="300" y="890" as="sourcePoint" />
            <mxPoint x="360.84000000000003" y="845" as="targetPoint" />
            <Array as="points" />
          </mxGeometry>
        </mxCell>
        <mxCell id="betQjuDFQChYaj_9KPCg-10" value="&lt;font size=&quot;1&quot;&gt;.5&lt;/font&gt;" style="text;html=1;align=center;verticalAlign=middle;resizable=0;points=[];autosize=1;strokeColor=none;fillColor=none;" parent="1" vertex="1">
          <mxGeometry x="271.25" y="845.5" width="30" height="30" as="geometry" />
        </mxCell>
        <mxCell id="betQjuDFQChYaj_9KPCg-11" value="" style="endArrow=none;html=1;rounded=0;exitX=0.5;exitY=0;exitDx=0;exitDy=0;exitPerimeter=0;entryX=0.2;entryY=0.87;entryDx=0;entryDy=0;entryPerimeter=0;" parent="1" source="betQjuDFQChYaj_9KPCg-1" target="Ps-6_fYjzGiWJNzwA4xQ-1" edge="1">
          <mxGeometry width="50" height="50" relative="1" as="geometry">
            <mxPoint x="200" y="1000" as="sourcePoint" />
            <mxPoint x="186.15999999999997" y="946" as="targetPoint" />
            <Array as="points" />
          </mxGeometry>
        </mxCell>
        <mxCell id="betQjuDFQChYaj_9KPCg-13" value="VRRP Group" style="text;html=1;align=center;verticalAlign=middle;resizable=0;points=[];autosize=1;strokeColor=none;fillColor=none;" parent="1" vertex="1">
          <mxGeometry x="215.75" y="1105.5" width="90" height="30" as="geometry" />
        </mxCell>
        <mxCell id="betQjuDFQChYaj_9KPCg-14" value="&lt;font style=&quot;font-size: 9px;&quot;&gt;.1&lt;/font&gt;" style="text;html=1;align=center;verticalAlign=middle;resizable=0;points=[];autosize=1;strokeColor=none;fillColor=none;" parent="1" vertex="1">
          <mxGeometry x="230" y="1133" width="30" height="30" as="geometry" />
        </mxCell>
        <mxCell id="betQjuDFQChYaj_9KPCg-15" value="&lt;font style=&quot;font-size: 9px;&quot;&gt;.1&lt;/font&gt;" style="text;html=1;align=center;verticalAlign=middle;resizable=0;points=[];autosize=1;strokeColor=none;fillColor=none;" parent="1" vertex="1">
          <mxGeometry x="251.5" y="1132.5" width="30" height="30" as="geometry" />
        </mxCell>
        <mxCell id="betQjuDFQChYaj_9KPCg-16" value="" style="endArrow=none;html=1;rounded=0;entryX=1.003;entryY=0.447;entryDx=0;entryDy=0;exitX=0.04;exitY=0.5;exitDx=0;exitDy=0;exitPerimeter=0;entryPerimeter=0;" parent="1" source="Ps-6_fYjzGiWJNzwA4xQ-42" target="betQjuDFQChYaj_9KPCg-12" edge="1">
          <mxGeometry width="50" height="50" relative="1" as="geometry">
            <mxPoint x="500" y="1110" as="sourcePoint" />
            <mxPoint x="381" y="1059" as="targetPoint" />
            <Array as="points" />
          </mxGeometry>
        </mxCell>
        <mxCell id="betQjuDFQChYaj_9KPCg-17" value="" style="endArrow=none;html=1;rounded=0;entryX=1.002;entryY=0.464;entryDx=0;entryDy=0;exitX=0.04;exitY=0.5;exitDx=0;exitDy=0;exitPerimeter=0;entryPerimeter=0;" parent="1" source="Ps-6_fYjzGiWJNzwA4xQ-60" target="betQjuDFQChYaj_9KPCg-12" edge="1">
          <mxGeometry width="50" height="50" relative="1" as="geometry">
            <mxPoint x="530" y="1160" as="sourcePoint" />
            <mxPoint x="326" y="1137" as="targetPoint" />
            <Array as="points" />
          </mxGeometry>
        </mxCell>
        <mxCell id="betQjuDFQChYaj_9KPCg-18" value="&lt;font style=&quot;font-size: 9px;&quot;&gt;.1&lt;/font&gt;" style="text;html=1;align=center;verticalAlign=middle;resizable=0;points=[];autosize=1;strokeColor=none;fillColor=none;" parent="1" vertex="1">
          <mxGeometry x="426.5" y="1058" width="30" height="30" as="geometry" />
        </mxCell>
        <mxCell id="betQjuDFQChYaj_9KPCg-19" value="&lt;font style=&quot;font-size: 9px;&quot;&gt;.1&lt;/font&gt;" style="text;html=1;align=center;verticalAlign=middle;resizable=0;points=[];autosize=1;strokeColor=none;fillColor=none;" parent="1" vertex="1">
          <mxGeometry x="424.5" y="1085" width="30" height="30" as="geometry" />
        </mxCell>
        <mxCell id="betQjuDFQChYaj_9KPCg-36" value="Internet" style="ellipse;shape=cloud;whiteSpace=wrap;html=1;" parent="1" vertex="1">
          <mxGeometry x="379.5" y="798.5" width="120" height="80" as="geometry" />
        </mxCell>
        <mxCell id="betQjuDFQChYaj_9KPCg-38" value="" style="endArrow=none;html=1;rounded=0;exitX=0.55;exitY=0.95;exitDx=0;exitDy=0;exitPerimeter=0;" parent="1" source="betQjuDFQChYaj_9KPCg-36" target="muuk2Ey48-B4BVq4eK8P-59" edge="1">
          <mxGeometry width="50" height="50" relative="1" as="geometry">
            <mxPoint x="-243" y="1119" as="sourcePoint" />
            <mxPoint x="80" y="1000" as="targetPoint" />
            <Array as="points" />
          </mxGeometry>
        </mxCell>
        <mxCell id="_2d1R3VX5iaFP_jDJybZ-1" value="&lt;font style=&quot;font-size: 9px;&quot;&gt;.30&lt;/font&gt;" style="text;html=1;align=center;verticalAlign=middle;resizable=0;points=[];autosize=1;strokeColor=none;fillColor=none;" parent="1" vertex="1">
          <mxGeometry x="505.75" y="1013" width="40" height="30" as="geometry" />
        </mxCell>
        <mxCell id="_2d1R3VX5iaFP_jDJybZ-2" value="&lt;font style=&quot;font-size: 9px;&quot;&gt;.31&lt;/font&gt;" style="text;html=1;align=center;verticalAlign=middle;resizable=0;points=[];autosize=1;strokeColor=none;fillColor=none;" parent="1" vertex="1">
          <mxGeometry x="603.25" y="1013" width="40" height="30" as="geometry" />
        </mxCell>
        <mxCell id="_2d1R3VX5iaFP_jDJybZ-3" value="&lt;font style=&quot;font-size: 9px;&quot;&gt;.32&lt;/font&gt;" style="text;html=1;align=center;verticalAlign=middle;resizable=0;points=[];autosize=1;strokeColor=none;fillColor=none;" parent="1" vertex="1">
          <mxGeometry x="731.75" y="1012" width="40" height="30" as="geometry" />
        </mxCell>
        <mxCell id="_2d1R3VX5iaFP_jDJybZ-4" value="&lt;font style=&quot;font-size: 9px;&quot;&gt;.33&lt;/font&gt;" style="text;html=1;align=center;verticalAlign=middle;resizable=0;points=[];autosize=1;strokeColor=none;fillColor=none;" parent="1" vertex="1">
          <mxGeometry x="826.5" y="1012" width="40" height="30" as="geometry" />
        </mxCell>
        <mxCell id="_2d1R3VX5iaFP_jDJybZ-5" value="&lt;font style=&quot;font-size: 9px;&quot;&gt;.1&lt;/font&gt;" style="text;html=1;align=center;verticalAlign=middle;resizable=0;points=[];autosize=1;strokeColor=none;fillColor=none;" parent="1" vertex="1">
          <mxGeometry x="831" y="1409.5" width="30" height="30" as="geometry" />
        </mxCell>
        <mxCell id="_2d1R3VX5iaFP_jDJybZ-6" value="&lt;font style=&quot;font-size: 9px;&quot;&gt;.2&lt;/font&gt;" style="text;html=1;align=center;verticalAlign=middle;resizable=0;points=[];autosize=1;strokeColor=none;fillColor=none;" parent="1" vertex="1">
          <mxGeometry x="964" y="1407.5" width="30" height="30" as="geometry" />
        </mxCell>
        <mxCell id="_2d1R3VX5iaFP_jDJybZ-7" value="&lt;font style=&quot;font-size: 9px;&quot;&gt;.10&lt;/font&gt;" style="text;html=1;align=center;verticalAlign=middle;resizable=0;points=[];autosize=1;strokeColor=none;fillColor=none;" parent="1" vertex="1">
          <mxGeometry x="908.5" y="1011" width="40" height="30" as="geometry" />
        </mxCell>
        <mxCell id="_2d1R3VX5iaFP_jDJybZ-9" value="&lt;font style=&quot;font-size: 9px;&quot;&gt;.12&lt;/font&gt;" style="text;html=1;align=center;verticalAlign=middle;resizable=0;points=[];autosize=1;strokeColor=none;fillColor=none;" parent="1" vertex="1">
          <mxGeometry x="907.5" y="1093" width="40" height="30" as="geometry" />
        </mxCell>
        <mxCell id="_2d1R3VX5iaFP_jDJybZ-10" value="&lt;font style=&quot;font-size: 9px;&quot;&gt;.13&lt;/font&gt;" style="text;html=1;align=center;verticalAlign=middle;resizable=0;points=[];autosize=1;strokeColor=none;fillColor=none;" parent="1" vertex="1">
          <mxGeometry x="907.5" y="1198" width="40" height="30" as="geometry" />
        </mxCell>
        <mxCell id="_2d1R3VX5iaFP_jDJybZ-11" value="&lt;font style=&quot;font-size: 9px;&quot;&gt;.14&lt;/font&gt;" style="text;html=1;align=center;verticalAlign=middle;resizable=0;points=[];autosize=1;strokeColor=none;fillColor=none;" parent="1" vertex="1">
          <mxGeometry x="907.5" y="1276" width="40" height="30" as="geometry" />
        </mxCell>
        <mxCell id="_2d1R3VX5iaFP_jDJybZ-12" value="&lt;font style=&quot;font-size: 9px;&quot;&gt;.15&lt;/font&gt;" style="text;html=1;align=center;verticalAlign=middle;resizable=0;points=[];autosize=1;strokeColor=none;fillColor=none;" parent="1" vertex="1">
          <mxGeometry x="962" y="1370" width="40" height="30" as="geometry" />
        </mxCell>
        <mxCell id="_2d1R3VX5iaFP_jDJybZ-13" value="&lt;font style=&quot;font-size: 9px;&quot;&gt;.16&lt;/font&gt;" style="text;html=1;align=center;verticalAlign=middle;resizable=0;points=[];autosize=1;strokeColor=none;fillColor=none;" parent="1" vertex="1">
          <mxGeometry x="763.25" y="1396.5" width="40" height="30" as="geometry" />
        </mxCell>
        <mxCell id="_2d1R3VX5iaFP_jDJybZ-16" value="&lt;font style=&quot;font-size: 9px;&quot;&gt;.10&lt;/font&gt;" style="text;html=1;align=center;verticalAlign=middle;resizable=0;points=[];autosize=1;strokeColor=none;fillColor=none;" parent="1" vertex="1">
          <mxGeometry x="-32" y="1304" width="40" height="30" as="geometry" />
        </mxCell>
        <mxCell id="_2d1R3VX5iaFP_jDJybZ-17" value="&lt;font style=&quot;font-size: 9px;&quot;&gt;.11&lt;/font&gt;" style="text;html=1;align=center;verticalAlign=middle;resizable=0;points=[];autosize=1;strokeColor=none;fillColor=none;" parent="1" vertex="1">
          <mxGeometry x="95.25" y="1304" width="40" height="30" as="geometry" />
        </mxCell>
        <mxCell id="_2d1R3VX5iaFP_jDJybZ-18" value="&lt;font style=&quot;font-size: 9px;&quot;&gt;.12&lt;/font&gt;" style="text;html=1;align=center;verticalAlign=middle;resizable=0;points=[];autosize=1;strokeColor=none;fillColor=none;" parent="1" vertex="1">
          <mxGeometry x="199.5" y="1304" width="40" height="30" as="geometry" />
        </mxCell>
        <mxCell id="lcaUaASnd-_4q78TZO---4" value="" style="endArrow=none;html=1;rounded=0;exitX=0.98;exitY=0.5;exitDx=0;exitDy=0;exitPerimeter=0;entryX=0;entryY=0.5;entryDx=0;entryDy=0;entryPerimeter=0;" parent="1" source="betQjuDFQChYaj_9KPCg-1" target="muuk2Ey48-B4BVq4eK8P-59" edge="1">
          <mxGeometry width="50" height="50" relative="1" as="geometry">
            <mxPoint x="171" y="1221" as="sourcePoint" />
            <mxPoint x="279" y="1169" as="targetPoint" />
            <Array as="points" />
          </mxGeometry>
        </mxCell>
        <mxCell id="lcaUaASnd-_4q78TZO---1" value="" style="shape=mxgraph.cisco.storage.cloud;sketch=0;html=1;pointerEvents=1;dashed=0;fillColor=#036897;strokeColor=#ffffff;strokeWidth=2;verticalLabelPosition=bottom;verticalAlign=top;align=center;outlineConnect=0;" parent="1" vertex="1">
          <mxGeometry x="230.5" y="1075.5" width="70" height="30" as="geometry" />
        </mxCell>
        <mxCell id="lcaUaASnd-_4q78TZO---2" value="&lt;font style=&quot;font-size: 8px;&quot;&gt;172.16.2.0/30&lt;/font&gt;" style="text;html=1;align=center;verticalAlign=middle;resizable=0;points=[];autosize=1;strokeColor=none;fillColor=none;" parent="1" vertex="1">
          <mxGeometry x="230" y="1075.5" width="70" height="30" as="geometry" />
        </mxCell>
        <mxCell id="lcaUaASnd-_4q78TZO---5" value="&lt;font style=&quot;font-size: 9px;&quot;&gt;.1&lt;/font&gt;" style="text;html=1;align=center;verticalAlign=middle;resizable=0;points=[];autosize=1;strokeColor=none;fillColor=none;" parent="1" vertex="1">
          <mxGeometry x="215" y="1066" width="30" height="30" as="geometry" />
        </mxCell>
        <mxCell id="lcaUaASnd-_4q78TZO---6" value="&lt;font style=&quot;font-size: 9px;&quot;&gt;.2&lt;/font&gt;" style="text;html=1;align=center;verticalAlign=middle;resizable=0;points=[];autosize=1;strokeColor=none;fillColor=none;" parent="1" vertex="1">
          <mxGeometry x="288.25" y="1066" width="30" height="30" as="geometry" />
        </mxCell>
        <mxCell id="cV-IC4DTlFyScohMRVNr-1" value="" style="shape=table;startSize=0;container=1;collapsible=0;childLayout=tableLayout;" vertex="1" parent="1">
          <mxGeometry x="1160" y="890" width="329.99999999999955" height="616.9999999999998" as="geometry" />
        </mxCell>
        <mxCell id="cV-IC4DTlFyScohMRVNr-2" value="" style="shape=tableRow;horizontal=0;startSize=0;swimlaneHead=0;swimlaneBody=0;strokeColor=inherit;top=0;left=0;bottom=0;right=0;collapsible=0;dropTarget=0;fillColor=none;points=[[0,0.5],[1,0.5]];portConstraint=eastwest;" vertex="1" parent="cV-IC4DTlFyScohMRVNr-1">
          <mxGeometry width="329.99999999999955" height="40" as="geometry" />
        </mxCell>
        <mxCell id="cV-IC4DTlFyScohMRVNr-3" value="" style="shape=partialRectangle;html=1;whiteSpace=wrap;connectable=0;strokeColor=inherit;overflow=hidden;fillColor=none;top=0;left=0;bottom=0;right=0;pointerEvents=1;" vertex="1" parent="cV-IC4DTlFyScohMRVNr-2">
          <mxGeometry width="100" height="40" as="geometry">
            <mxRectangle width="100" height="40" as="alternateBounds" />
          </mxGeometry>
        </mxCell>
        <mxCell id="cV-IC4DTlFyScohMRVNr-4" value="" style="shape=partialRectangle;html=1;whiteSpace=wrap;connectable=0;strokeColor=inherit;overflow=hidden;fillColor=none;top=0;left=0;bottom=0;right=0;pointerEvents=1;" vertex="1" parent="cV-IC4DTlFyScohMRVNr-2">
          <mxGeometry x="100" width="230" height="40" as="geometry">
            <mxRectangle width="230" height="40" as="alternateBounds" />
          </mxGeometry>
        </mxCell>
        <mxCell id="cV-IC4DTlFyScohMRVNr-5" value="" style="shape=tableRow;horizontal=0;startSize=0;swimlaneHead=0;swimlaneBody=0;strokeColor=inherit;top=0;left=0;bottom=0;right=0;collapsible=0;dropTarget=0;fillColor=none;points=[[0,0.5],[1,0.5]];portConstraint=eastwest;swimlaneLine=0;dashed=1;dashPattern=8 8;" vertex="1" parent="cV-IC4DTlFyScohMRVNr-1">
          <mxGeometry y="40" width="329.99999999999955" height="40" as="geometry" />
        </mxCell>
        <mxCell id="cV-IC4DTlFyScohMRVNr-6" value="" style="shape=partialRectangle;html=1;whiteSpace=wrap;connectable=0;strokeColor=inherit;overflow=hidden;fillColor=none;top=0;left=0;bottom=0;right=0;pointerEvents=1;" vertex="1" parent="cV-IC4DTlFyScohMRVNr-5">
          <mxGeometry width="100" height="40" as="geometry">
            <mxRectangle width="100" height="40" as="alternateBounds" />
          </mxGeometry>
        </mxCell>
        <mxCell id="cV-IC4DTlFyScohMRVNr-7" value="" style="shape=partialRectangle;html=1;whiteSpace=wrap;connectable=0;strokeColor=inherit;overflow=hidden;fillColor=none;top=0;left=0;bottom=0;right=0;pointerEvents=1;" vertex="1" parent="cV-IC4DTlFyScohMRVNr-5">
          <mxGeometry x="100" width="230" height="40" as="geometry">
            <mxRectangle width="230" height="40" as="alternateBounds" />
          </mxGeometry>
        </mxCell>
        <mxCell id="cV-IC4DTlFyScohMRVNr-8" value="" style="shape=tableRow;horizontal=0;startSize=0;swimlaneHead=0;swimlaneBody=0;strokeColor=inherit;top=0;left=0;bottom=0;right=0;collapsible=0;dropTarget=0;fillColor=none;points=[[0,0.5],[1,0.5]];portConstraint=eastwest;" vertex="1" parent="cV-IC4DTlFyScohMRVNr-1">
          <mxGeometry y="80" width="329.99999999999955" height="40" as="geometry" />
        </mxCell>
        <mxCell id="cV-IC4DTlFyScohMRVNr-9" value="" style="shape=partialRectangle;html=1;whiteSpace=wrap;connectable=0;strokeColor=inherit;overflow=hidden;fillColor=none;top=0;left=0;bottom=0;right=0;pointerEvents=1;" vertex="1" parent="cV-IC4DTlFyScohMRVNr-8">
          <mxGeometry width="100" height="40" as="geometry">
            <mxRectangle width="100" height="40" as="alternateBounds" />
          </mxGeometry>
        </mxCell>
        <mxCell id="cV-IC4DTlFyScohMRVNr-10" value="" style="shape=partialRectangle;html=1;whiteSpace=wrap;connectable=0;strokeColor=inherit;overflow=hidden;fillColor=none;top=0;left=0;bottom=0;right=0;pointerEvents=1;" vertex="1" parent="cV-IC4DTlFyScohMRVNr-8">
          <mxGeometry x="100" width="230" height="40" as="geometry">
            <mxRectangle width="230" height="40" as="alternateBounds" />
          </mxGeometry>
        </mxCell>
        <mxCell id="cV-IC4DTlFyScohMRVNr-11" value="" style="shape=tableRow;horizontal=0;startSize=0;swimlaneHead=0;swimlaneBody=0;strokeColor=inherit;top=0;left=0;bottom=0;right=0;collapsible=0;dropTarget=0;fillColor=none;points=[[0,0.5],[1,0.5]];portConstraint=eastwest;" vertex="1" parent="cV-IC4DTlFyScohMRVNr-1">
          <mxGeometry y="120" width="329.99999999999955" height="40" as="geometry" />
        </mxCell>
        <mxCell id="cV-IC4DTlFyScohMRVNr-12" value="" style="shape=partialRectangle;html=1;whiteSpace=wrap;connectable=0;strokeColor=inherit;overflow=hidden;fillColor=none;top=0;left=0;bottom=0;right=0;pointerEvents=1;" vertex="1" parent="cV-IC4DTlFyScohMRVNr-11">
          <mxGeometry width="100" height="40" as="geometry">
            <mxRectangle width="100" height="40" as="alternateBounds" />
          </mxGeometry>
        </mxCell>
        <mxCell id="cV-IC4DTlFyScohMRVNr-13" value="" style="shape=partialRectangle;html=1;whiteSpace=wrap;connectable=0;strokeColor=inherit;overflow=hidden;fillColor=none;top=0;left=0;bottom=0;right=0;pointerEvents=1;" vertex="1" parent="cV-IC4DTlFyScohMRVNr-11">
          <mxGeometry x="100" width="230" height="40" as="geometry">
            <mxRectangle width="230" height="40" as="alternateBounds" />
          </mxGeometry>
        </mxCell>
        <mxCell id="cV-IC4DTlFyScohMRVNr-14" value="" style="shape=tableRow;horizontal=0;startSize=0;swimlaneHead=0;swimlaneBody=0;strokeColor=inherit;top=0;left=0;bottom=0;right=0;collapsible=0;dropTarget=0;fillColor=none;points=[[0,0.5],[1,0.5]];portConstraint=eastwest;" vertex="1" parent="cV-IC4DTlFyScohMRVNr-1">
          <mxGeometry y="160" width="329.99999999999955" height="97" as="geometry" />
        </mxCell>
        <mxCell id="cV-IC4DTlFyScohMRVNr-15" value="" style="shape=partialRectangle;html=1;whiteSpace=wrap;connectable=0;strokeColor=inherit;overflow=hidden;fillColor=none;top=0;left=0;bottom=0;right=0;pointerEvents=1;" vertex="1" parent="cV-IC4DTlFyScohMRVNr-14">
          <mxGeometry width="100" height="97" as="geometry">
            <mxRectangle width="100" height="97" as="alternateBounds" />
          </mxGeometry>
        </mxCell>
        <mxCell id="cV-IC4DTlFyScohMRVNr-16" value="" style="shape=partialRectangle;html=1;whiteSpace=wrap;connectable=0;strokeColor=inherit;overflow=hidden;fillColor=none;top=0;left=0;bottom=0;right=0;pointerEvents=1;" vertex="1" parent="cV-IC4DTlFyScohMRVNr-14">
          <mxGeometry x="100" width="230" height="97" as="geometry">
            <mxRectangle width="230" height="97" as="alternateBounds" />
          </mxGeometry>
        </mxCell>
        <mxCell id="cV-IC4DTlFyScohMRVNr-17" value="" style="shape=tableRow;horizontal=0;startSize=0;swimlaneHead=0;swimlaneBody=0;strokeColor=inherit;top=0;left=0;bottom=0;right=0;collapsible=0;dropTarget=0;fillColor=none;points=[[0,0.5],[1,0.5]];portConstraint=eastwest;" vertex="1" parent="cV-IC4DTlFyScohMRVNr-1">
          <mxGeometry y="257" width="329.99999999999955" height="90" as="geometry" />
        </mxCell>
        <mxCell id="cV-IC4DTlFyScohMRVNr-18" value="" style="shape=partialRectangle;html=1;whiteSpace=wrap;connectable=0;strokeColor=inherit;overflow=hidden;fillColor=none;top=0;left=0;bottom=0;right=0;pointerEvents=1;" vertex="1" parent="cV-IC4DTlFyScohMRVNr-17">
          <mxGeometry width="100" height="90" as="geometry">
            <mxRectangle width="100" height="90" as="alternateBounds" />
          </mxGeometry>
        </mxCell>
        <mxCell id="cV-IC4DTlFyScohMRVNr-19" value="" style="shape=partialRectangle;html=1;whiteSpace=wrap;connectable=0;strokeColor=inherit;overflow=hidden;fillColor=none;top=0;left=0;bottom=0;right=0;pointerEvents=1;" vertex="1" parent="cV-IC4DTlFyScohMRVNr-17">
          <mxGeometry x="100" width="230" height="90" as="geometry">
            <mxRectangle width="230" height="90" as="alternateBounds" />
          </mxGeometry>
        </mxCell>
        <mxCell id="cV-IC4DTlFyScohMRVNr-20" value="" style="shape=tableRow;horizontal=0;startSize=0;swimlaneHead=0;swimlaneBody=0;strokeColor=inherit;top=0;left=0;bottom=0;right=0;collapsible=0;dropTarget=0;fillColor=none;points=[[0,0.5],[1,0.5]];portConstraint=eastwest;" vertex="1" parent="cV-IC4DTlFyScohMRVNr-1">
          <mxGeometry y="347" width="329.99999999999955" height="90" as="geometry" />
        </mxCell>
        <mxCell id="cV-IC4DTlFyScohMRVNr-21" value="" style="shape=partialRectangle;html=1;whiteSpace=wrap;connectable=0;strokeColor=inherit;overflow=hidden;fillColor=none;top=0;left=0;bottom=0;right=0;pointerEvents=1;" vertex="1" parent="cV-IC4DTlFyScohMRVNr-20">
          <mxGeometry width="100" height="90" as="geometry">
            <mxRectangle width="100" height="90" as="alternateBounds" />
          </mxGeometry>
        </mxCell>
        <mxCell id="cV-IC4DTlFyScohMRVNr-22" value="" style="shape=partialRectangle;html=1;whiteSpace=wrap;connectable=0;strokeColor=inherit;overflow=hidden;fillColor=none;top=0;left=0;bottom=0;right=0;pointerEvents=1;" vertex="1" parent="cV-IC4DTlFyScohMRVNr-20">
          <mxGeometry x="100" width="230" height="90" as="geometry">
            <mxRectangle width="230" height="90" as="alternateBounds" />
          </mxGeometry>
        </mxCell>
        <mxCell id="cV-IC4DTlFyScohMRVNr-23" value="" style="shape=tableRow;horizontal=0;startSize=0;swimlaneHead=0;swimlaneBody=0;strokeColor=inherit;top=0;left=0;bottom=0;right=0;collapsible=0;dropTarget=0;fillColor=none;points=[[0,0.5],[1,0.5]];portConstraint=eastwest;" vertex="1" parent="cV-IC4DTlFyScohMRVNr-1">
          <mxGeometry y="437" width="329.99999999999955" height="80" as="geometry" />
        </mxCell>
        <mxCell id="cV-IC4DTlFyScohMRVNr-24" value="" style="shape=partialRectangle;html=1;whiteSpace=wrap;connectable=0;strokeColor=inherit;overflow=hidden;fillColor=none;top=0;left=0;bottom=0;right=0;pointerEvents=1;" vertex="1" parent="cV-IC4DTlFyScohMRVNr-23">
          <mxGeometry width="100" height="80" as="geometry">
            <mxRectangle width="100" height="80" as="alternateBounds" />
          </mxGeometry>
        </mxCell>
        <mxCell id="cV-IC4DTlFyScohMRVNr-25" value="" style="shape=partialRectangle;html=1;whiteSpace=wrap;connectable=0;strokeColor=inherit;overflow=hidden;fillColor=none;top=0;left=0;bottom=0;right=0;pointerEvents=1;" vertex="1" parent="cV-IC4DTlFyScohMRVNr-23">
          <mxGeometry x="100" width="230" height="80" as="geometry">
            <mxRectangle width="230" height="80" as="alternateBounds" />
          </mxGeometry>
        </mxCell>
        <mxCell id="cV-IC4DTlFyScohMRVNr-26" value="" style="shape=tableRow;horizontal=0;startSize=0;swimlaneHead=0;swimlaneBody=0;strokeColor=inherit;top=0;left=0;bottom=0;right=0;collapsible=0;dropTarget=0;fillColor=none;points=[[0,0.5],[1,0.5]];portConstraint=eastwest;" vertex="1" parent="cV-IC4DTlFyScohMRVNr-1">
          <mxGeometry y="517" width="329.99999999999955" height="80" as="geometry" />
        </mxCell>
        <mxCell id="cV-IC4DTlFyScohMRVNr-27" value="" style="shape=partialRectangle;html=1;whiteSpace=wrap;connectable=0;strokeColor=inherit;overflow=hidden;fillColor=none;top=0;left=0;bottom=0;right=0;pointerEvents=1;rowspan=2;colspan=1;" vertex="1" parent="cV-IC4DTlFyScohMRVNr-26">
          <mxGeometry width="100" height="100" as="geometry">
            <mxRectangle width="100" height="80" as="alternateBounds" />
          </mxGeometry>
        </mxCell>
        <mxCell id="cV-IC4DTlFyScohMRVNr-28" value="" style="shape=partialRectangle;html=1;whiteSpace=wrap;connectable=0;strokeColor=inherit;overflow=hidden;fillColor=none;top=0;left=0;bottom=0;right=0;pointerEvents=1;rowspan=2;colspan=1;" vertex="1" parent="cV-IC4DTlFyScohMRVNr-26">
          <mxGeometry x="100" width="230" height="100" as="geometry">
            <mxRectangle width="230" height="80" as="alternateBounds" />
          </mxGeometry>
        </mxCell>
        <mxCell id="cV-IC4DTlFyScohMRVNr-29" value="" style="shape=tableRow;horizontal=0;startSize=0;swimlaneHead=0;swimlaneBody=0;strokeColor=inherit;top=0;left=0;bottom=0;right=0;collapsible=0;dropTarget=0;fillColor=none;points=[[0,0.5],[1,0.5]];portConstraint=eastwest;" vertex="1" parent="cV-IC4DTlFyScohMRVNr-1">
          <mxGeometry y="597" width="329.99999999999955" height="20" as="geometry" />
        </mxCell>
        <mxCell id="cV-IC4DTlFyScohMRVNr-30" value="" style="shape=partialRectangle;html=1;whiteSpace=wrap;connectable=0;strokeColor=inherit;overflow=hidden;fillColor=none;top=0;left=0;bottom=0;right=0;pointerEvents=1;" vertex="1" visible="0" parent="cV-IC4DTlFyScohMRVNr-29">
          <mxGeometry width="100" height="20" as="geometry">
            <mxRectangle width="100" height="20" as="alternateBounds" />
          </mxGeometry>
        </mxCell>
        <mxCell id="cV-IC4DTlFyScohMRVNr-31" value="" style="shape=partialRectangle;html=1;whiteSpace=wrap;connectable=0;strokeColor=inherit;overflow=hidden;fillColor=none;top=0;left=0;bottom=0;right=0;pointerEvents=1;" vertex="1" visible="0" parent="cV-IC4DTlFyScohMRVNr-29">
          <mxGeometry x="100" width="230" height="20" as="geometry">
            <mxRectangle width="230" height="20" as="alternateBounds" />
          </mxGeometry>
        </mxCell>
        <mxCell id="cV-IC4DTlFyScohMRVNr-32" value="" style="endArrow=none;html=1;rounded=0;fillColor=#d80073;strokeColor=#A50040;" edge="1" parent="1">
          <mxGeometry width="50" height="50" relative="1" as="geometry">
            <mxPoint x="1246" y="910" as="sourcePoint" />
            <mxPoint x="1172" y="910" as="targetPoint" />
          </mxGeometry>
        </mxCell>
        <mxCell id="cV-IC4DTlFyScohMRVNr-33" value="VLAN 102 - сегмент управления" style="text;html=1;align=center;verticalAlign=middle;resizable=0;points=[];autosize=1;strokeColor=none;fillColor=none;" vertex="1" parent="1">
          <mxGeometry x="1275" y="894" width="200" height="30" as="geometry" />
        </mxCell>
        <mxCell id="cV-IC4DTlFyScohMRVNr-36" value="" style="endArrow=none;html=1;rounded=0;fillColor=#6d8764;strokeColor=#3A5431;strokeWidth=2;" edge="1" parent="1">
          <mxGeometry width="50" height="50" relative="1" as="geometry">
            <mxPoint x="1245" y="952" as="sourcePoint" />
            <mxPoint x="1175" y="952" as="targetPoint" />
          </mxGeometry>
        </mxCell>
        <mxCell id="cV-IC4DTlFyScohMRVNr-37" value="VLAN 101 - серверный сегмент" style="text;html=1;align=center;verticalAlign=middle;resizable=0;points=[];autosize=1;strokeColor=none;fillColor=none;" vertex="1" parent="1">
          <mxGeometry x="1275" y="936" width="200" height="30" as="geometry" />
        </mxCell>
        <mxCell id="cV-IC4DTlFyScohMRVNr-38" value="" style="endArrow=none;html=1;rounded=0;fillColor=#60a917;strokeColor=#2D7600;" edge="1" parent="1">
          <mxGeometry width="50" height="50" relative="1" as="geometry">
            <mxPoint x="1242" y="991.8600000000001" as="sourcePoint" />
            <mxPoint x="1178" y="992" as="targetPoint" />
          </mxGeometry>
        </mxCell>
        <mxCell id="cV-IC4DTlFyScohMRVNr-39" value="" style="endArrow=none;html=1;rounded=0;fillColor=#0050ef;strokeColor=#001DBC;" edge="1" parent="1">
          <mxGeometry width="50" height="50" relative="1" as="geometry">
            <mxPoint x="1241" y="1033" as="sourcePoint" />
            <mxPoint x="1177" y="1033" as="targetPoint" />
          </mxGeometry>
        </mxCell>
        <mxCell id="cV-IC4DTlFyScohMRVNr-40" value="VLAN 201 - клиентский сегмент" style="text;html=1;align=center;verticalAlign=middle;resizable=0;points=[];autosize=1;strokeColor=none;fillColor=none;" vertex="1" parent="1">
          <mxGeometry x="1275" y="976" width="200" height="30" as="geometry" />
        </mxCell>
        <mxCell id="cV-IC4DTlFyScohMRVNr-41" value="VLAN 100 - сегмент администраторов" style="text;html=1;align=center;verticalAlign=middle;resizable=0;points=[];autosize=1;strokeColor=none;fillColor=none;" vertex="1" parent="1">
          <mxGeometry x="1260" y="1015.5" width="230" height="30" as="geometry" />
        </mxCell>
        <mxCell id="cV-IC4DTlFyScohMRVNr-42" value="" style="shape=mxgraph.cisco.servers.fileserver;sketch=0;html=1;pointerEvents=1;dashed=0;fillColor=#036897;strokeColor=#ffffff;strokeWidth=2;verticalLabelPosition=bottom;verticalAlign=top;align=center;outlineConnect=0;" vertex="1" parent="1">
          <mxGeometry x="1190" y="1165" width="43" height="62" as="geometry" />
        </mxCell>
        <mxCell id="cV-IC4DTlFyScohMRVNr-43" value="" style="shape=mxgraph.cisco.switches.workgroup_switch;sketch=0;html=1;pointerEvents=1;dashed=0;fillColor=#036897;strokeColor=#ffffff;strokeWidth=2;verticalLabelPosition=bottom;verticalAlign=top;align=center;outlineConnect=0;" vertex="1" parent="1">
          <mxGeometry x="1181" y="1271" width="61" height="27" as="geometry" />
        </mxCell>
        <mxCell id="cV-IC4DTlFyScohMRVNr-44" value="" style="shape=mxgraph.cisco.computers_and_peripherals.terminal;sketch=0;html=1;pointerEvents=1;dashed=0;fillColor=#036897;strokeColor=#ffffff;strokeWidth=2;verticalLabelPosition=bottom;verticalAlign=top;align=center;outlineConnect=0;" vertex="1" parent="1">
          <mxGeometry x="1178" y="1344" width="61" height="54" as="geometry" />
        </mxCell>
        <mxCell id="cV-IC4DTlFyScohMRVNr-45" value="" style="fontColor=#0066CC;verticalAlign=top;verticalLabelPosition=bottom;labelPosition=center;align=center;html=1;outlineConnect=0;fillColor=#CCCCCC;strokeColor=#6881B3;gradientColor=none;gradientDirection=north;strokeWidth=2;shape=mxgraph.networks.firewall;" vertex="1" parent="1">
          <mxGeometry x="1183.5" y="1437" width="50" height="50" as="geometry" />
        </mxCell>
        <mxCell id="cV-IC4DTlFyScohMRVNr-46" value="Сервер" style="text;html=1;align=center;verticalAlign=middle;resizable=0;points=[];autosize=1;strokeColor=none;fillColor=none;" vertex="1" parent="1">
          <mxGeometry x="1340" y="1181" width="70" height="30" as="geometry" />
        </mxCell>
        <mxCell id="cV-IC4DTlFyScohMRVNr-47" value="Коммутатор" style="text;html=1;align=center;verticalAlign=middle;resizable=0;points=[];autosize=1;strokeColor=none;fillColor=none;" vertex="1" parent="1">
          <mxGeometry x="1330" y="1273" width="90" height="30" as="geometry" />
        </mxCell>
        <mxCell id="cV-IC4DTlFyScohMRVNr-48" value="Персональный компьютер" style="text;html=1;align=center;verticalAlign=middle;resizable=0;points=[];autosize=1;strokeColor=none;fillColor=none;" vertex="1" parent="1">
          <mxGeometry x="1290" y="1356" width="170" height="30" as="geometry" />
        </mxCell>
        <mxCell id="cV-IC4DTlFyScohMRVNr-49" value="Межсетевой экран" style="text;html=1;align=center;verticalAlign=middle;resizable=0;points=[];autosize=1;strokeColor=none;fillColor=none;" vertex="1" parent="1">
          <mxGeometry x="1310" y="1447" width="130" height="30" as="geometry" />
        </mxCell>
        <mxCell id="cV-IC4DTlFyScohMRVNr-51" value="&lt;font style=&quot;font-size: 8px;&quot;&gt;192.168.0.0/24&lt;/font&gt;" style="ellipse;shape=cloud;whiteSpace=wrap;html=1;" vertex="1" parent="1">
          <mxGeometry x="1166.5" y="1069" width="90" height="61" as="geometry" />
        </mxCell>
        <mxCell id="cV-IC4DTlFyScohMRVNr-52" value="Сеть" style="text;html=1;align=center;verticalAlign=middle;resizable=0;points=[];autosize=1;strokeColor=none;fillColor=none;" vertex="1" parent="1">
          <mxGeometry x="1350" y="1084.5" width="50" height="30" as="geometry" />
        </mxCell>
      </root>
    </mxGraphModel>
  </diagram>
</mxfile>
